<svg width="18" height="18" viewBox="0 0 18 18" fill="none" xmlns="http://www.w3.org/2000/svg">
<g clip-path="url(#clip0_1859_1809)">
<path d="M15.807 2.45801H2.18677C1.38589 2.45801 0.734375 3.10952 0.734375 3.9104V8.75172C0.734375 9.5526 1.38589 10.2041 2.18677 10.2041H15.807C16.6079 10.2041 17.2594 9.5526 17.2594 8.75172V3.9104C17.2594 3.10952 16.6079 2.45801 15.807 2.45801ZM12.9022 5.3628C13.1696 5.3628 13.3864 5.57956 13.3864 5.84693C13.3864 6.1143 13.1696 6.33106 12.9022 6.33106C12.6348 6.33106 12.4181 6.1143 12.4181 5.84693C12.4181 5.57956 12.6348 5.3628 12.9022 5.3628ZM14.8387 8.26759H3.15503C2.88744 8.26759 2.6709 8.05105 2.6709 7.78346C2.6709 7.51586 2.88744 7.29933 3.15503 7.29933H14.8387C15.1063 7.29933 15.3229 7.51586 15.3229 7.78346C15.3229 8.05105 15.1063 8.26759 14.8387 8.26759ZM14.8387 6.33106C14.5714 6.33106 14.3546 6.1143 14.3546 5.84693C14.3546 5.57956 14.5714 5.3628 14.8387 5.3628C15.1061 5.3628 15.3229 5.57956 15.3229 5.84693C15.3229 6.1143 15.1061 6.33106 14.8387 6.33106Z" fill="#94A3B8"/>
<path d="M5.12397 11.1729C4.85637 11.1729 4.63983 11.3894 4.63983 11.657V12.3969C4.63983 13.5476 4.00017 14.5821 2.9709 15.097C2.73168 15.2166 2.63475 15.5073 2.75437 15.7466C2.8734 15.9839 3.16233 16.0831 3.40397 15.9631C4.76371 15.2833 5.6081 13.9169 5.6081 12.3969V11.657C5.6081 11.3894 5.39156 11.1729 5.12397 11.1729Z" fill="#94A3B8"/>
<path d="M12.8709 11.1729C12.6033 11.1729 12.3867 11.3894 12.3867 11.657V12.3969C12.3867 13.9169 13.2311 15.2833 14.5908 15.9631C14.8323 16.0829 15.1213 15.9842 15.2404 15.7466C15.3601 15.5073 15.2631 15.2166 15.0239 15.097C13.9946 14.5821 13.355 13.5476 13.355 12.3969V11.657C13.355 11.3894 13.1384 11.1729 12.8709 11.1729Z" fill="#94A3B8"/>
<path d="M9.47998 15.53V11.657C9.47998 11.3894 9.26345 11.1729 8.99585 11.1729C8.72825 11.1729 8.51172 11.3894 8.51172 11.657V15.53C8.51172 15.7976 8.72825 16.0142 8.99585 16.0142C9.26345 16.0142 9.47998 15.7976 9.47998 15.53Z" fill="#94A3B8"/>
<path d="M11.4175 15.53V11.657C11.4175 11.3894 11.2009 11.1729 10.9334 11.1729C10.6658 11.1729 10.4492 11.3894 10.4492 11.657V15.53C10.4492 15.7976 10.6658 16.0142 10.9334 16.0142C11.2009 16.0142 11.4175 15.7976 11.4175 15.53Z" fill="#94A3B8"/>
<path d="M7.54639 15.53V11.657C7.54639 11.3894 7.32985 11.1729 7.06226 11.1729C6.79466 11.1729 6.57812 11.3894 6.57812 11.657V15.53C6.57812 15.7976 6.79466 16.0142 7.06226 16.0142C7.32985 16.0142 7.54639 15.7976 7.54639 15.53Z" fill="#94A3B8"/>
</g>
<defs>
<clipPath id="clip0_1859_1809">
<rect width="16.525" height="16.525" fill="white" transform="translate(0.734375 0.973633)"/>
</clipPath>
</defs>
</svg>
