<svg width="19" height="19" viewBox="0 0 19 19" fill="none" xmlns="http://www.w3.org/2000/svg">
<g clip-path="url(#clip0_1859_1853)">
<path d="M4.22131 6.87837C4.22131 6.77357 4.15144 6.7037 4.04663 6.7037H3.90688V4.95691C3.90688 4.8521 3.83701 4.78223 3.73221 4.78223H2.92868V5.76043C2.92868 5.79536 2.89375 5.79536 2.89375 5.79536H2.754V6.07485H2.89375C2.92868 6.07485 2.92868 6.10979 2.92868 6.10979V6.7037H2.82387V6.14472H2.71907C2.68413 6.14472 2.68413 6.10979 2.68413 6.10979V5.76043C2.68413 5.72549 2.71907 5.72549 2.71907 5.72549H2.85881V4.81716H2.02035C1.91554 4.81716 1.84567 4.88703 1.84567 4.99184V6.73863H1.70593C1.60112 6.73863 1.53125 6.8085 1.53125 6.91331V7.61203H4.22131V6.87837ZM2.6492 5.48094C2.6492 5.51588 2.61426 5.55081 2.57932 5.55081H2.22997C2.19503 5.55081 2.16009 5.51588 2.16009 5.48094V5.27133C2.16009 5.23639 2.19503 5.20146 2.22997 5.20146H2.57932C2.61426 5.20146 2.6492 5.23639 2.6492 5.27133V5.48094ZM3.59246 5.48094C3.59246 5.51588 3.55753 5.55081 3.52259 5.55081H3.17323C3.1383 5.55081 3.10336 5.51588 3.10336 5.48094V5.27133C3.10336 5.23639 3.1383 5.20146 3.17323 5.20146H3.52259C3.55753 5.20146 3.59246 5.23639 3.59246 5.27133V5.48094Z" fill="#94A3B8"/>
<path d="M17.1122 4.3975H16.7279V2.0568C16.7279 1.74238 16.4484 1.46289 16.134 1.46289H16.0991C15.7847 1.46289 15.5052 1.74238 15.5052 2.0568V4.3975H13.2343V2.0568C13.2343 1.74238 12.9549 1.46289 12.6404 1.46289H12.6055C12.2911 1.46289 12.0116 1.74238 12.0116 2.0568V4.3975H11.6972C11.1731 4.3975 10.7539 4.81673 10.7539 5.34076V10.8606C10.7539 11.3847 11.1731 11.8039 11.6972 11.8039H17.1472C17.6712 11.8039 18.0904 11.3847 18.0904 10.8606V5.30583C18.0555 4.81673 17.6363 4.3975 17.1122 4.3975Z" fill="#94A3B8"/>
<path d="M12.7788 13.6203C12.7788 13.8299 12.9535 14.0395 13.198 14.0395H14.0365V16.2405C14.0365 16.8344 13.5474 17.3235 12.9535 17.3235H11.3814C10.7875 17.3235 10.2984 16.8344 10.2984 16.2405C10.2984 14.8431 9.14549 13.6902 7.74806 13.6902H7.32883C6.17595 13.6902 5.19775 14.6335 5.19775 15.8213C5.19775 16.3802 4.74358 16.8344 4.18461 16.8344C3.62563 16.8344 3.24134 16.3453 3.24134 15.7863V11.2447H4.11474C4.32435 11.2447 4.49903 11.07 4.49903 10.8604V8.10046C4.49903 7.99565 4.42916 7.92578 4.32435 7.92578H1.42468C1.31987 7.92578 1.25 7.99565 1.25 8.10046V10.8604C1.25 11.07 1.42468 11.2447 1.63429 11.2447H2.57756V15.7863C2.57756 16.7296 3.34615 17.4982 4.28941 17.4982C5.23268 17.4982 6.00127 16.7296 6.00127 15.7863C6.00127 15.0178 6.63011 14.354 7.43364 14.354H7.85287C8.866 14.354 9.70446 15.1924 9.70446 16.2056C9.70446 17.1838 10.508 17.9873 11.4862 17.9873H13.0583C14.0365 17.9873 14.84 17.1838 14.84 16.2056V14.0046H15.5737C15.7833 14.0046 15.958 13.8299 15.958 13.5854V12.4325H12.7788V13.6203Z" fill="#94A3B8"/>
</g>
<defs>
<clipPath id="clip0_1859_1853">
<rect width="17.4679" height="17.4679" fill="white" transform="translate(0.898438 0.973633)"/>
</clipPath>
</defs>
</svg>
