<svg width="17" height="18" viewBox="0 0 17 18" fill="none" xmlns="http://www.w3.org/2000/svg">
<g clip-path="url(#clip0_1859_1825)">
<path d="M12.4418 0.935547C10.0118 0.935547 8.03516 2.50589 8.03516 4.39554C8.03516 5.17299 8.38132 5.92561 9.0144 6.5362V8.31251C9.0144 8.49325 9.11386 8.65917 9.27308 8.74429C9.43028 8.82864 9.62398 8.82097 9.77563 8.71991L11.311 7.69667C11.7059 7.78131 12.0779 7.82289 12.4418 7.82289C14.8717 7.82289 16.8483 6.28519 16.8483 4.39554C16.8483 2.50589 14.8717 0.935547 12.4418 0.935547ZM10.4833 4.88516C10.2129 4.88516 9.99364 4.66594 9.99364 4.39554C9.99364 4.12514 10.2129 3.90592 10.4833 3.90592C10.7537 3.90592 10.9729 4.12514 10.9729 4.39554C10.9729 4.66594 10.7537 4.88516 10.4833 4.88516ZM12.4418 4.88516C12.1713 4.88516 11.9521 4.66594 11.9521 4.39554C11.9521 4.12514 12.1713 3.90592 12.4418 3.90592C12.7122 3.90592 12.9314 4.12514 12.9314 4.39554C12.9314 4.66594 12.7122 4.88516 12.4418 4.88516ZM14.4002 4.88516C14.1298 4.88516 13.9106 4.66594 13.9106 4.39554C13.9106 4.12514 14.1298 3.90592 14.4002 3.90592C14.6706 3.90592 14.8899 4.12514 14.8899 4.39554C14.8899 4.66594 14.6706 4.88516 14.4002 4.88516Z" fill="#94A3B8"/>
<path d="M4.57584 5.86426C2.95588 5.86426 1.60547 7.18203 1.60547 8.80199C1.60547 10.4219 2.95588 11.7397 4.57584 11.7397C6.1958 11.7397 7.54621 10.4219 7.54621 8.80199C7.54621 7.18203 6.1958 5.86426 4.57584 5.86426Z" fill="#94A3B8"/>
<path d="M7.20845 11.71C6.51515 12.3305 5.57736 12.7194 4.57595 12.7194C3.57455 12.7194 2.63676 12.3305 1.94346 11.71C0.853655 12.5129 0.136719 13.7947 0.136719 15.2493V17.1586C0.136719 17.4293 0.35571 17.6483 0.62634 17.6483H8.52557C8.7962 17.6483 9.01519 17.4293 9.01519 17.1586V15.2493C9.01519 13.7947 8.29825 12.5129 7.20845 11.71Z" fill="#94A3B8"/>
</g>
<defs>
<clipPath id="clip0_1859_1825">
<rect width="16.7124" height="16.7124" fill="white" transform="translate(0.136719 0.935547)"/>
</clipPath>
</defs>
</svg>
