<svg width="19" height="19" viewBox="0 0 19 19" fill="none" xmlns="http://www.w3.org/2000/svg">
<path d="M14.7167 6.34414C12.6323 4.50898 5.65417 4.50898 3.56979 6.34414C2.56536 7.23529 1.96875 8.97227 1.96875 11.0113C1.96875 13.0504 2.56536 14.7874 3.56979 15.6785C4.57422 16.5697 6.8776 17.053 9.14323 17.053C11.4089 17.053 13.6745 16.5999 14.7167 15.6785C15.7211 14.7874 16.3177 13.0504 16.3177 11.0113C16.3177 8.97227 15.7211 7.23529 14.7167 6.34414ZM11.137 11.5626L8.21432 13.0202C8.12138 13.0663 8.01823 13.088 7.91459 13.0833C7.81094 13.0786 7.7102 13.0476 7.62183 12.9932C7.53347 12.9388 7.46039 12.8628 7.40946 12.7724C7.35854 12.6821 7.33145 12.5802 7.33073 12.4764V9.54622C7.33145 9.44247 7.35854 9.34061 7.40946 9.25021C7.46039 9.15981 7.53347 9.08385 7.62183 9.02947C7.7102 8.9751 7.81094 8.94409 7.91459 8.93936C8.01823 8.93464 8.12138 8.95636 8.21432 9.00247L11.137 10.46C11.2385 10.512 11.3237 10.5909 11.3832 10.6882C11.4427 10.7855 11.4742 10.8973 11.4742 11.0113C11.4742 11.1254 11.4427 11.2372 11.3832 11.3345C11.3237 11.4317 11.2385 11.5107 11.137 11.5626Z" fill="#94A3B8"/>
<path d="M9.14241 6.47965C9.04302 6.48023 8.9445 6.46118 8.85248 6.42359C8.76047 6.38601 8.67678 6.33064 8.60622 6.26064L5.58538 3.23981C5.51497 3.16939 5.45911 3.0858 5.421 2.9938C5.3829 2.9018 5.36328 2.80319 5.36328 2.70361C5.36328 2.5025 5.44317 2.30962 5.58538 2.16741C5.72759 2.0252 5.92047 1.94531 6.12158 1.94531C6.22116 1.94531 6.31977 1.96493 6.41177 2.00303C6.50377 2.04114 6.58736 2.097 6.65778 2.16741L9.14241 4.6596L11.627 2.16741C11.7693 2.0252 11.9621 1.94531 12.1632 1.94531C12.3644 1.94531 12.5572 2.0252 12.6994 2.16741C12.8417 2.30962 12.9215 2.5025 12.9215 2.70361C12.9215 2.90472 12.8417 3.0976 12.6994 3.23981L9.67861 6.26064C9.60804 6.33064 9.52436 6.38601 9.43234 6.42359C9.34033 6.46118 9.2418 6.48023 9.14241 6.47965Z" fill="#94A3B8"/>
</svg>
