<svg width="18" height="18" viewBox="0 0 18 18" fill="none" xmlns="http://www.w3.org/2000/svg">
<g clip-path="url(#clip0_1859_1843)">
<path d="M14.119 11.0331C14.6539 10.1381 15.0087 9.00622 15.0775 7.88623C15.1212 7.16737 14.961 6.41277 14.6142 5.70318C14.0701 4.58848 13.1354 3.9623 12.2325 3.35729C11.5587 2.90585 10.9219 2.47957 10.4718 1.87059L10.391 1.76203C10.1249 1.40459 9.82442 0.999488 9.77676 0.659255C9.7291 0.31505 9.41667 0.0701351 9.07512 0.0899931C8.72826 0.113823 8.45952 0.401101 8.45952 0.749277V12.5449C7.90482 12.2086 7.22171 12.0021 6.47372 12.0021C4.64944 12.0021 3.16406 13.1896 3.16406 14.6499C3.16406 16.1101 4.64944 17.2976 6.47372 17.2976C8.29801 17.2976 9.78338 16.1101 9.78338 14.6499V6.93437C10.7776 7.31432 12.4046 8.28206 12.8521 10.5419C12.7687 10.665 12.6893 10.7974 12.5966 10.9033C12.3543 11.1774 12.3808 11.5957 12.6562 11.8366C12.9289 12.0802 13.3472 12.0511 13.5895 11.7771C13.7669 11.5758 13.9244 11.3402 14.0754 11.094C14.0912 11.0754 14.1058 11.0556 14.119 11.0331Z" fill="#94A3B8"/>
</g>
<defs>
<clipPath id="clip0_1859_1843">
<rect width="17.2087" height="17.2087" fill="white" transform="translate(0.519531 0.0888672)"/>
</clipPath>
</defs>
</svg>
