<svg width="24" height="25" viewBox="0 0 24 25" fill="none" xmlns="http://www.w3.org/2000/svg">
<g clip-path="url(#clip0_1859_1768)">
<path d="M15.1151 10.6003L13.9865 11.252L13.9886 11.2557C13.2361 11.6901 12.2064 11.3207 11.772 10.5682C11.3376 9.81577 11.639 8.92374 12.3914 8.48931L11.7526 7.38276C10.3915 8.16857 9.92012 9.91612 10.7081 11.2809C11.496 12.6456 13.2414 13.1133 14.6062 12.3254L14.6041 12.3217L15.7327 11.67C16.5036 11.225 17.5012 11.3769 18.0613 12.347L18.6149 13.306L19.7215 12.6671L19.0209 11.4535C18.2542 10.1257 16.4946 9.8039 15.1151 10.6003Z" fill="#94A3B8"/>
<path d="M20.1456 13.4051L19.0391 14.0439L20.3168 16.2571L21.4234 15.6182L20.1456 13.4051Z" fill="#94A3B8"/>
<path d="M18.2999 14.4697L7.23438 20.8584L8.51211 23.0715L19.5776 16.6828L18.2999 14.4697Z" fill="#94A3B8"/>
<path d="M16.1428 7.58062C16.3389 6.87236 16.263 6.08505 15.8669 5.39899C15.0789 4.03423 13.3298 3.56868 11.9688 4.35449L12.6076 5.46104C13.3601 5.02661 14.3259 5.2854 14.7603 6.03786C15.1948 6.79032 14.936 7.75613 14.1835 8.19056L14.8224 9.29712C16.4785 8.34095 18.5505 8.93977 19.5066 10.5959L20.4564 12.241L21.563 11.6021L20.6111 9.95336C19.6634 8.31195 17.9014 7.44073 16.1428 7.58062Z" fill="#94A3B8"/>
<path d="M21.9894 12.3396L20.8828 12.9785L22.1605 15.1916L23.2671 14.5528L21.9894 12.3396Z" fill="#94A3B8"/>
</g>
<defs>
<clipPath id="clip0_1859_1768">
<rect width="17.0365" height="17.0365" fill="white" transform="translate(0.636719 9.42383) rotate(-30)"/>
</clipPath>
</defs>
</svg>
