<svg width="19" height="19" viewBox="0 0 19 19" fill="none" xmlns="http://www.w3.org/2000/svg">
<g clip-path="url(#clip0_1859_1866)">
<path d="M8.64755 5.76084C8.64755 5.723 8.63252 5.68671 8.60577 5.65995C8.57901 5.6332 8.54272 5.61816 8.50488 5.61816H6.96689C6.92905 5.61816 6.89276 5.6332 6.86601 5.65995C6.83925 5.68671 6.82422 5.723 6.82422 5.76084V6.1275H8.64755V5.76084Z" fill="#94A3B8"/>
<path d="M11.6992 2.68359H12.3298V5.333H11.6992V2.68359Z" fill="#94A3B8"/>
<path d="M7.69727 16.5527H7.05097C6.89338 16.5527 6.76562 16.6805 6.76562 16.8381V17.5215C6.76562 17.6791 6.89338 17.8068 7.05097 17.8068H7.69727C7.85486 17.8068 7.98261 17.6791 7.98261 17.5215V16.8381C7.98261 16.6805 7.85486 16.5527 7.69727 16.5527Z" fill="#94A3B8"/>
<path d="M8.41109 2.25551V2.10142C8.41109 1.95007 8.47121 1.80491 8.57823 1.69789C8.68526 1.59086 8.83042 1.53074 8.98177 1.53074H10.768C10.9194 1.53074 11.0645 1.59086 11.1715 1.69789C11.2786 1.80491 11.3387 1.95007 11.3387 2.10142V2.25551C11.3387 2.29335 11.3537 2.32963 11.3805 2.35639C11.4072 2.38315 11.4435 2.39818 11.4814 2.39818H12.6227C12.6606 2.39818 12.6969 2.38315 12.7236 2.35639C12.7504 2.32963 12.7654 2.29335 12.7654 2.25551V1.53074C12.7654 1.34154 12.6902 1.1601 12.5565 1.02632C12.4227 0.89254 12.2412 0.817383 12.0521 0.817383H7.69773C7.50854 0.817383 7.32709 0.89254 7.19331 1.02632C7.05953 1.1601 6.98438 1.34154 6.98438 1.53074V2.25551C6.98438 2.29335 6.99941 2.32963 7.02616 2.35639C7.05292 2.38315 7.08921 2.39818 7.12705 2.39818H8.26841C8.30625 2.39818 8.34254 2.38315 8.3693 2.35639C8.39605 2.32963 8.41109 2.29335 8.41109 2.25551Z" fill="#94A3B8"/>
<path d="M7.41797 2.68359H8.04857V5.333H7.41797V2.68359Z" fill="#94A3B8"/>
<path d="M11.1016 5.76084V6.1275H12.9249V5.76084C12.9249 5.723 12.9099 5.68671 12.8831 5.65995C12.8564 5.6332 12.8201 5.61816 12.7822 5.61816H11.2442C11.2064 5.61816 11.1701 5.6332 11.1433 5.65995C11.1166 5.68671 11.1016 5.723 11.1016 5.76084Z" fill="#94A3B8"/>
<path d="M12.6973 16.5527H12.051C11.8934 16.5527 11.7656 16.6805 11.7656 16.8381V17.5215C11.7656 17.6791 11.8934 17.8068 12.051 17.8068H12.6973C12.8549 17.8068 12.9826 17.6791 12.9826 17.5215V16.8381C12.9826 16.6805 12.8549 16.5527 12.6973 16.5527Z" fill="#94A3B8"/>
<path d="M13.7262 6.41309H6.02195C5.83276 6.41309 5.65131 6.48824 5.51753 6.62202C5.38375 6.7558 5.30859 6.93725 5.30859 7.12644V15.554C5.30859 15.7432 5.38375 15.9247 5.51753 16.0584C5.65131 16.1922 5.83276 16.2674 6.02195 16.2674H13.7262C13.8199 16.2674 13.9126 16.2489 13.9992 16.2131C14.0857 16.1772 14.1644 16.1247 14.2306 16.0584C14.2968 15.9922 14.3494 15.9136 14.3852 15.827C14.4211 15.7405 14.4395 15.6477 14.4395 15.554V7.12644C14.4395 7.03276 14.4211 6.94 14.3852 6.85345C14.3494 6.7669 14.2968 6.68826 14.2306 6.62202C14.1644 6.55578 14.0857 6.50324 13.9992 6.46739C13.9126 6.43154 13.8199 6.41309 13.7262 6.41309ZM8.44736 14.1273C8.44736 14.1651 8.43233 14.2014 8.40557 14.2282C8.37881 14.2549 8.34252 14.27 8.30469 14.27C8.26685 14.27 8.23056 14.2549 8.2038 14.2282C8.17705 14.2014 8.16201 14.1651 8.16201 14.1273V8.55315C8.16201 8.51531 8.17705 8.47902 8.2038 8.45227C8.23056 8.42551 8.26685 8.41048 8.30469 8.41048C8.34252 8.41048 8.37881 8.42551 8.40557 8.45227C8.43233 8.47902 8.44736 8.51531 8.44736 8.55315V14.1273ZM11.5861 14.1273C11.5861 14.1651 11.5711 14.2014 11.5443 14.2282C11.5176 14.2549 11.4813 14.27 11.4434 14.27C11.4056 14.27 11.3693 14.2549 11.3426 14.2282C11.3158 14.2014 11.3008 14.1651 11.3008 14.1273V8.55315C11.3008 8.51531 11.3158 8.47902 11.3426 8.45227C11.3693 8.42551 11.4056 8.41048 11.4434 8.41048C11.4813 8.41048 11.5176 8.42551 11.5443 8.45227C11.5711 8.47902 11.5861 8.51531 11.5861 8.55315V14.1273Z" fill="#94A3B8"/>
</g>
<defs>
<clipPath id="clip0_1859_1866">
<rect width="18.2619" height="18.2619" fill="white" transform="translate(0.742188 0.180664)"/>
</clipPath>
</defs>
</svg>
