<svg width="17" height="17" viewBox="0 0 17 17" fill="none" xmlns="http://www.w3.org/2000/svg">
<g clip-path="url(#clip0_1859_1797)">
<path d="M9.9418 13.4289C10.0761 12.6006 9.51346 11.8203 8.68518 11.686C7.85691 11.5518 7.07661 12.1144 6.94234 12.9427C6.80807 13.7709 7.37067 14.5512 8.19895 14.6855C9.02723 14.8198 9.80753 14.2572 9.9418 13.4289Z" fill="#94A3B8"/>
<path d="M16.148 5.48375C13.9583 3.29405 11.1423 2.29297 8.44531 2.29297C5.74833 2.29297 2.93233 3.29405 0.742595 5.48375C0.13744 6.08961 0.140212 7.02777 0.736956 7.62703C1.48217 8.38053 2.45786 8.08059 2.89476 7.62907C4.37799 6.14782 6.34903 5.33206 8.44531 5.33206C10.5416 5.33206 12.5126 6.14782 13.9959 7.62907C14.4328 8.08059 15.4085 8.38053 16.1537 7.62703C16.7504 7.02777 16.7532 6.08961 16.148 5.48375Z" fill="#94A3B8"/>
<path d="M8.44414 6.98047C6.93329 6.98047 5.31214 7.54217 4.05592 8.7981C3.44302 9.41097 3.45523 10.3535 4.06204 10.9539C4.66455 11.5523 5.60198 11.5498 6.20433 10.9474C6.8026 10.3492 7.59803 10.0197 8.44411 10.0197C9.29019 10.0197 10.0856 10.3492 10.6839 10.9474C11.2862 11.5498 12.2237 11.5523 12.8262 10.9539C13.433 10.3535 13.4452 9.41097 12.8323 8.7981C11.5761 7.5422 9.95499 6.98047 8.44414 6.98047Z" fill="#94A3B8"/>
</g>
<defs>
<clipPath id="clip0_1859_1797">
<rect width="16.3125" height="16.3125" fill="white" transform="translate(0.289062 0.34375)"/>
</clipPath>
</defs>
</svg>
