<svg width="160" height="24" viewBox="0 0 160 24" fill="none" xmlns="http://www.w3.org/2000/svg">
<g clip-path="url(#clip0_1859_1326)">
<path d="M11.9983 17L7.14613 19.9635C6.76658 20.1953 6.29598 19.8534 6.39915 19.4208L7.71828 13.89L3.40134 10.1921C3.06356 9.90278 3.24334 9.34951 3.68668 9.31399L9.35328 8.86L11.5366 3.6101C11.7074 3.19943 12.2892 3.19943 12.4599 3.6101L14.6433 8.86L20.3107 9.31399C20.7541 9.3495 20.9338 9.90282 20.596 10.1922L16.2783 13.89L17.5974 19.4208C17.7006 19.8534 17.23 20.1953 16.8504 19.9635L11.9983 17Z" fill="#FFBD30"/>
</g>
<g clip-path="url(#clip1_1859_1326)">
<path d="M45.9983 17L41.1461 19.9635C40.7666 20.1953 40.296 19.8534 40.3992 19.4208L41.7183 13.89L37.4013 10.1921C37.0636 9.90278 37.2433 9.34951 37.6867 9.31399L43.3533 8.86L45.5366 3.6101C45.7074 3.19943 46.2892 3.19943 46.4599 3.6101L48.6433 8.86L54.3107 9.31399C54.7541 9.3495 54.9338 9.90282 54.596 10.1922L50.2783 13.89L51.5974 19.4208C51.7006 19.8534 51.23 20.1953 50.8504 19.9635L45.9983 17Z" fill="#FFBD30"/>
</g>
<g clip-path="url(#clip2_1859_1326)">
<path d="M79.9983 17L75.1461 19.9635C74.7666 20.1953 74.296 19.8534 74.3992 19.4208L75.7183 13.89L71.4013 10.1921C71.0636 9.90278 71.2433 9.34951 71.6867 9.31399L77.3533 8.86L79.5366 3.6101C79.7074 3.19943 80.2892 3.19943 80.4599 3.6101L82.6433 8.86L88.3107 9.31399C88.7541 9.3495 88.9338 9.90282 88.596 10.1922L84.2783 13.89L85.5974 19.4208C85.7006 19.8534 85.23 20.1953 84.8504 19.9635L79.9983 17Z" fill="#FFBD30"/>
</g>
<g clip-path="url(#clip3_1859_1326)">
<path d="M113.998 17L109.146 19.9635C108.767 20.1953 108.296 19.8534 108.399 19.4208L109.718 13.89L105.401 10.1921C105.064 9.90278 105.243 9.34951 105.687 9.31399L111.353 8.86L113.537 3.6101C113.707 3.19943 114.289 3.19943 114.46 3.6101L116.643 8.86L122.311 9.31399C122.754 9.3495 122.934 9.90282 122.596 10.1922L118.278 13.89L119.597 19.4208C119.701 19.8534 119.23 20.1953 118.85 19.9635L113.998 17Z" fill="#B8BABF"/>
</g>
<g clip-path="url(#clip4_1859_1326)">
<path d="M147.998 17L143.146 19.9635C142.767 20.1953 142.296 19.8534 142.399 19.4208L143.718 13.89L139.401 10.1921C139.064 9.90278 139.243 9.34951 139.687 9.31399L145.353 8.86L147.537 3.6101C147.707 3.19943 148.289 3.19943 148.46 3.6101L150.643 8.86L156.311 9.31399C156.754 9.3495 156.934 9.90282 156.596 10.1922L152.278 13.89L153.597 19.4208C153.701 19.8534 153.23 20.1953 152.85 19.9635L147.998 17Z" fill="#B8BABF"/>
</g>
<defs>
<clipPath id="clip0_1859_1326">
<rect width="24" height="24" fill="white"/>
</clipPath>
<clipPath id="clip1_1859_1326">
<rect width="24" height="24" fill="white" transform="translate(34)"/>
</clipPath>
<clipPath id="clip2_1859_1326">
<rect width="24" height="24" fill="white" transform="translate(68)"/>
</clipPath>
<clipPath id="clip3_1859_1326">
<rect width="24" height="24" fill="white" transform="translate(102)"/>
</clipPath>
<clipPath id="clip4_1859_1326">
<rect width="24" height="24" fill="white" transform="translate(136)"/>
</clipPath>
</defs>
</svg>
