<svg width="40" height="39" viewBox="0 0 40 39" fill="none" xmlns="http://www.w3.org/2000/svg">
<g clip-path="url(#clip0_1848_150)">
<path d="M36.9483 11.4876C33.3015 3.76067 25.0408 -0.847902 16.4633 0.132706C14.6748 0.337454 12.9097 0.784335 11.444 1.63151C11.444 1.63151 -0.641128 9.37572 0.116194 28.3938C0.116194 28.3938 2.06309 20.6605 6.06292 18.1149C7.18725 17.3995 8.19274 16.5137 8.98036 15.4469C12.5031 10.6732 12.2648 5.28535 12.0994 3.68762L12.1908 3.63644C12.9639 5.55394 17.0924 13.622 33.3224 18.8436C33.3224 18.8436 38.4489 19.2462 39.8471 29.2156C39.8465 29.2139 40.8968 19.8524 36.9483 11.4876Z" fill="#FCC72A"/>
<path d="M33.323 18.8419C17.093 13.6203 12.9644 5.55227 12.1914 3.63477L12.0999 3.68595C12.2654 5.28368 12.5036 10.6721 8.9809 15.4452C8.19329 16.5121 7.18779 17.4007 6.06346 18.1132C5.91374 18.2087 5.76694 18.3122 5.62305 18.4215C5.61956 23.8226 7.00079 34.0422 17.1472 36.6016C31.1157 40.126 34.7566 21.395 34.7566 21.395C34.8027 20.7179 34.8133 20.0389 34.7881 19.3607C33.9323 18.8897 33.323 18.8419 33.323 18.8419Z" fill="#FDC92B"/>
<path d="M24.8588 16.7004C24.8325 16.6619 24.8152 16.6182 24.8082 16.5723C24.8012 16.5265 24.8046 16.4796 24.8183 16.4352C24.8319 16.3909 24.8553 16.35 24.8869 16.3157C24.9185 16.2814 24.9575 16.2544 25.0009 16.2368L25.0685 16.2092C25.2019 16.1569 25.337 16.1109 25.4763 16.0723C25.6155 16.0338 25.7518 16.0027 25.8882 15.9688C26.0245 15.9349 26.1678 15.9234 26.3064 15.9015C26.8661 15.8326 27.4343 15.885 27.9714 16.0551C28.1045 16.0922 28.2337 16.1421 28.357 16.204C28.4839 16.254 28.6054 16.3163 28.72 16.3898L29.0409 16.5946C29.0534 16.6025 29.0653 16.6114 29.0765 16.621L29.3619 16.866L29.5105 16.9949L29.6404 17.1421L29.8868 17.4233L29.906 17.4469C30.0581 17.6488 30.1903 17.8633 30.3307 18.0675C30.156 17.8898 29.9876 17.7051 29.8064 17.5384C29.7988 17.5315 29.7913 17.5246 29.7831 17.5182L29.5 17.2939L29.3544 17.1789L29.1936 17.0834L28.8959 16.9109C28.8826 16.9033 28.8688 16.8965 28.8545 16.8908L28.5382 16.7619C28.4276 16.7156 28.3124 16.6807 28.1945 16.6578C28.0807 16.6235 27.9635 16.6011 27.845 16.5911C27.3823 16.5306 26.9118 16.571 26.4666 16.7096C26.3606 16.7481 26.254 16.7803 26.1503 16.8212L26.1311 16.8292C26.0291 16.8764 25.9248 16.9126 25.8276 16.9672C25.7303 17.0219 25.6254 17.0736 25.5299 17.1329C25.4603 17.1764 25.3763 17.1914 25.2956 17.1749C25.2149 17.1584 25.144 17.1116 25.0976 17.0443L24.8588 16.7004Z" fill="#4A2407"/>
<path d="M31.6304 21.7204C31.6304 21.7204 26.7475 14.8803 23.5195 22.4106C23.5195 22.4106 27.4122 26.7879 31.6304 21.7204Z" fill="#FFF3C6"/>
<path d="M31.6304 21.7206C29.7663 17.5221 26.9228 18.0224 26.9228 18.0224C23.5626 18.5838 23.5195 22.4107 23.5195 22.4107C26.7475 14.8805 31.6304 21.7206 31.6304 21.7206Z" fill="#CB8B14"/>
<path d="M29.7459 21.6726C29.9637 20.4394 29.1276 19.2654 27.8785 19.0504C26.6294 18.8354 25.4402 19.6608 25.2225 20.894C25.0047 22.1272 25.8407 23.3013 27.0899 23.5163C28.339 23.7313 29.5281 22.9058 29.7459 21.6726Z" fill="#CB9114"/>
<path d="M28.6042 21.6367C29.1701 20.9345 29.0523 19.9124 28.3411 19.3537C27.6299 18.795 26.5945 18.9112 26.0286 19.6134C25.4627 20.3156 25.5805 21.3377 26.2917 21.8964C27.0029 22.4551 28.0382 22.3389 28.6042 21.6367Z" fill="#302411"/>
<path d="M27.4085 20.5566C27.6694 20.189 27.5792 19.6823 27.2069 19.4246C26.8347 19.167 26.3213 19.2561 26.0604 19.6236C25.7994 19.9911 25.8897 20.4979 26.2619 20.7555C26.6342 21.0132 27.1475 20.9241 27.4085 20.5566Z" fill="white"/>
<path d="M15.5472 16.7004C15.5734 16.6619 15.5907 16.6182 15.5977 16.5723C15.6047 16.5265 15.6013 16.4796 15.5877 16.4352C15.5741 16.3909 15.5506 16.35 15.519 16.3157C15.4874 16.2814 15.4485 16.2544 15.405 16.2368L15.3374 16.2092C15.2034 16.1569 15.0689 16.1109 14.9296 16.0723C14.7904 16.0338 14.6541 16.0027 14.5178 15.9688C14.3815 15.9349 14.2382 15.9234 14.0995 15.9015C13.5398 15.8326 12.9716 15.885 12.4346 16.0551C12.3014 16.0922 12.1722 16.1421 12.0489 16.204C11.922 16.254 11.8005 16.3163 11.686 16.3898L11.3679 16.5946C11.3554 16.6025 11.3436 16.6114 11.3324 16.621L11.0469 16.866L10.8984 16.9949L10.7685 17.1421L10.522 17.4233L10.5028 17.4469C10.3508 17.6488 10.2185 17.8633 10.0781 18.0675C10.2529 17.8898 10.4213 17.7051 10.6024 17.5384C10.61 17.5315 10.6176 17.5246 10.6257 17.5182L10.9088 17.2939L11.0545 17.1789L11.2153 17.084L11.513 16.9115C11.5261 16.9039 11.5397 16.8972 11.5537 16.8913L11.8706 16.7625C11.9813 16.7161 12.0964 16.6813 12.2144 16.6584C12.3282 16.6241 12.4453 16.6017 12.5639 16.5917C13.0266 16.5312 13.4971 16.5716 13.9422 16.7102C14.0482 16.7487 14.1548 16.7809 14.2585 16.8217L14.2778 16.8298C14.3797 16.8769 14.484 16.9132 14.5813 16.9678C14.6786 17.0225 14.7834 17.0742 14.879 17.1335C14.9486 17.1769 15.0326 17.192 15.1132 17.1755C15.1939 17.159 15.2649 17.1121 15.3112 17.0449L15.5472 16.7004Z" fill="#4A2407"/>
<path d="M8.77539 21.7209C8.77539 21.7209 13.6584 14.8819 16.8857 22.4111C16.8857 22.4111 12.9937 26.7884 8.77539 21.7209Z" fill="#FFF3C6"/>
<path d="M8.77539 21.7206C10.6396 17.5221 13.483 18.0224 13.483 18.0224C16.8432 18.5838 16.8857 22.4107 16.8857 22.4107C13.6584 14.8805 8.77539 21.7206 8.77539 21.7206Z" fill="#CB8B14"/>
<path d="M14.8517 22.5235C15.5416 21.4732 15.2384 20.0696 14.1745 19.3885C13.1106 18.7075 11.6889 19.0068 10.9991 20.0572C10.3092 21.1075 10.6125 22.5111 11.6763 23.1921C12.7402 23.8732 14.1619 23.5738 14.8517 22.5235Z" fill="#CB9114"/>
<path d="M14.4326 21.5676C14.9598 20.8367 14.7871 19.8222 14.0468 19.3016C13.3065 18.7811 12.2789 18.9516 11.7516 19.6825C11.2243 20.4134 11.397 21.4279 12.1373 21.9484C12.8777 22.469 13.9053 22.2985 14.4326 21.5676Z" fill="#302411"/>
<path d="M13.2792 20.3781C13.4377 19.9574 13.2207 19.4896 12.7946 19.3331C12.3685 19.1767 11.8946 19.3909 11.7361 19.8115C11.5777 20.2322 11.7946 20.7001 12.2207 20.8565C12.6468 21.013 13.1207 20.7988 13.2792 20.3781Z" fill="white"/>
<path d="M18.6406 27.7904C18.8868 28.0391 19.1564 28.2642 19.4457 28.4627C19.7236 28.6404 20.0096 28.733 20.2794 28.6928C20.5491 28.6525 20.8299 28.4961 21.0949 28.2861C21.36 28.0762 21.6041 27.8197 21.8825 27.5684C21.7899 27.932 21.6202 28.2722 21.3845 28.5662C21.1445 28.8584 20.8019 29.1414 20.351 29.1989C20.13 29.2285 19.905 29.1995 19.6991 29.1149C19.5087 29.0335 19.3362 28.9163 19.1911 28.7698C18.9181 28.5009 18.7273 28.1614 18.6406 27.7904Z" fill="#CB8B14"/>
<path d="M36.9483 11.4876C33.3015 3.76067 25.0408 -0.847902 16.4633 0.132706C14.6748 0.337454 12.9097 0.784335 11.444 1.63151C11.444 1.63151 -0.641128 9.37572 0.116194 28.3938C0.116194 28.3938 2.06309 20.6605 6.06292 18.1149C7.18725 17.3995 8.19274 16.5137 8.98036 15.4469C12.5031 10.6732 12.2648 5.28535 12.0994 3.68762L12.1908 3.63644C12.9639 5.55394 17.0924 13.622 33.3224 18.8436C33.3224 18.8436 38.4489 19.2462 39.8471 29.2156C39.8465 29.2139 40.8968 19.8524 36.9483 11.4876Z" fill="#FCC72A"/>
<path d="M12.1907 3.63477L12.0993 3.68595C12.2647 5.28368 12.503 10.6721 8.98027 15.4452C8.19266 16.5121 7.18716 17.4007 6.06283 18.1132C5.78797 18.2897 5.52614 18.4851 5.2793 18.6982C15.1507 13.76 13.0273 5.70756 12.2117 3.6871L12.1907 3.63477Z" fill="#9E600A"/>
<path d="M25.7352 30.6348H14.7383C14.7383 30.6348 15.4851 34.062 20.2143 34.1609H20.2627C24.9883 34.062 25.7352 30.6348 25.7352 30.6348Z" fill="#683B09"/>
<path d="M20.2175 32.973H20.2542C22.1865 32.9443 23.2573 32.4031 23.8369 31.9004H16.6348C17.2144 32.4031 18.2846 32.9443 20.2175 32.973Z" fill="#1B150B"/>
<path d="M24.4794 31.0381H15.9922C15.9922 31.0381 16.1198 31.4545 16.633 31.9008H23.8351C24.3519 31.4545 24.4794 31.0381 24.4794 31.0381Z" fill="#EBEAE9"/>
<path d="M5.62549 18.8756L5.622 18.5225L5.27888 18.695C3.50383 20.2157 2.19133 22.7152 1.33789 24.7961C2.63349 24.7719 5.9925 24.9324 7.00324 27.1541C5.9494 24.214 5.65812 21.1756 5.62549 18.8756Z" fill="#CE9117"/>
<path d="M36.9483 11.4876C33.3015 3.76067 25.0408 -0.847902 16.4633 0.132706C14.6748 0.337454 12.9097 0.784335 11.444 1.63151C11.444 1.63151 -0.641128 9.37572 0.116194 28.3938C0.116194 28.3938 2.06309 20.6605 6.06292 18.1149C7.18725 17.3995 8.19274 16.5137 8.98036 15.4469C12.5031 10.6732 12.2648 5.28535 12.0994 3.68762L12.1908 3.63644C12.9639 5.55394 17.0924 13.622 33.3224 18.8436C33.3224 18.8436 38.4489 19.2462 39.8471 29.2156C39.8465 29.2139 40.8968 19.8524 36.9483 11.4876Z" fill="#FCC72A"/>
<path d="M34.7868 19.3604C34.8119 20.0385 34.8014 20.7175 34.7553 21.3946C34.7553 21.3946 34.3668 23.3921 33.3572 25.9589C33.2442 26.3423 33.1199 26.7242 32.9844 27.1046C34.0085 24.8552 37.3588 24.6459 38.7633 24.6608C37.5673 21.3595 35.9676 19.9792 34.7868 19.3604Z" fill="#CE9117"/>
<path d="M33.3228 18.8413C25.8469 16.4361 20.9383 13.427 17.7429 10.6934L17.733 10.6847C15.9854 9.21182 14.762 7.80907 13.9179 6.62716C13.7532 6.40171 13.6017 6.18488 13.4635 5.97668C13.418 5.90767 13.3738 5.84037 13.3307 5.77366L13.3278 5.76906C13.2852 5.70349 13.2445 5.63907 13.2048 5.57581L13.2002 5.56834C13.1613 5.50584 13.1225 5.4443 13.0837 5.38372C13.0819 5.38052 13.08 5.37745 13.0778 5.37451C13.0417 5.3147 13.0068 5.25603 12.973 5.19852L12.9666 5.18759L12.8699 5.02023L12.8635 5.00873C12.8326 4.95121 12.8052 4.9006 12.7737 4.84826C12.7737 4.84481 12.7697 4.84079 12.7673 4.83676C12.7388 4.785 12.7091 4.73381 12.6846 4.68435C12.6846 4.68032 12.6805 4.6763 12.6782 4.67285C12.652 4.62281 12.6264 4.5745 12.6019 4.52676L12.5966 4.51641C12.5722 4.46925 12.5483 4.42266 12.5262 4.37723L12.5215 4.3686C12.4988 4.32316 12.4772 4.27888 12.4563 4.23574L12.4528 4.22827C12.4318 4.18513 12.412 4.14257 12.3945 4.10231V4.09656C12.3753 4.05515 12.3572 4.01489 12.3397 3.97636C12.3217 3.93667 12.3048 3.89871 12.2891 3.86133C12.2891 8.32439 20.16 16.2411 34.792 19.3647C34.4803 19.2347 34.1512 19.095 33.8017 18.946C33.6458 18.8962 33.4854 18.8612 33.3228 18.8413Z" fill="#9E600A"/>
<path d="M36.9483 11.4876C33.3015 3.76067 25.0408 -0.847902 16.4633 0.132706C14.6748 0.337454 12.9097 0.784335 11.444 1.63151C11.444 1.63151 -0.641128 9.37572 0.116194 28.3938C0.116194 28.3938 2.06309 20.6605 6.06292 18.1149C7.18725 17.3995 8.19274 16.5137 8.98036 15.4469C12.5031 10.6732 12.2648 5.28535 12.0994 3.68762L12.1908 3.63644C12.9639 5.55394 17.0924 13.622 33.3224 18.8436C33.3224 18.8436 38.4489 19.2462 39.8471 29.2156C39.8465 29.2139 40.8968 19.8524 36.9483 11.4876Z" fill="#FCC72A"/>
<path d="M33.4395 25.7504C33.447 25.7303 33.4552 25.7102 33.4628 25.6895C33.4552 25.7125 33.4476 25.7326 33.4395 25.7504Z" fill="#E9AB1A"/>
<path d="M38.5684 24.1475C38.5922 24.205 38.6161 24.2671 38.64 24.3286L38.5684 24.1475Z" fill="#E9AB1A"/>
<path d="M33.541 25.4871C33.541 25.483 33.5439 25.4784 33.5457 25.4744C33.5474 25.4704 33.5428 25.483 33.541 25.4871Z" fill="#E9AB1A"/>
<path d="M39.8771 28.8898C39.8602 29.1009 39.8474 29.2136 39.8474 29.2136C39.5928 27.3968 39.2141 25.898 38.7656 24.6608C37.361 24.6459 34.0107 24.8552 32.9866 27.1046C33.1229 26.7239 33.2472 26.342 33.3594 25.9589L33.3717 25.9267C32.0592 29.2769 29.687 33.6117 25.7344 35.7426L25.8509 36.343L32.718 38.9789C32.718 38.9789 38.391 39.5287 39.6143 34.6976C40.0781 32.8692 40.0682 30.7792 39.8771 28.8898Z" fill="#E9AB1A"/>
<path d="M17.1483 36.6009C16.3707 36.4062 15.6094 36.1528 14.8711 35.8428L14.7383 37.0426C14.7383 37.0426 15.6028 38.8744 20.2609 38.8744C25.0041 38.8744 25.9117 36.6549 25.9117 36.6549L25.7334 35.7422C23.4399 36.9799 20.6116 37.4751 17.1483 36.6009Z" fill="#F2B622"/>
<path d="M11.7041 2.5154C12.3595 3.47472 14.3093 5.02414 20.1179 5.69877C25.2858 6.29864 26.847 6.5448 27.2612 6.64545C27.0078 6.05191 24.9642 1.81431 17.913 0.659431C17.913 0.659431 15.5157 0.435702 14.6273 0.457558C13.4896 0.713493 12.4026 1.09538 11.4448 1.64924C11.4448 1.64924 9.54163 2.86911 7.29297 5.52911C10.8763 6.71044 11.5835 4.04583 11.7041 2.5154Z" fill="#FFEFBB"/>
<path d="M36.9483 11.4876C33.3015 3.76067 25.0408 -0.847902 16.4633 0.132706C14.6748 0.337454 12.9097 0.784335 11.444 1.63151C11.444 1.63151 -0.641128 9.37572 0.116194 28.3938C0.116194 28.3938 2.06309 20.6605 6.06292 18.1149C7.18725 17.3995 8.19274 16.5137 8.98036 15.4469C12.5031 10.6732 12.2648 5.28535 12.0994 3.68762L12.1908 3.63644C12.9639 5.55394 17.0924 13.622 33.3224 18.8436C33.3224 18.8436 38.4489 19.2462 39.8471 29.2156C39.8465 29.2139 40.8968 19.8524 36.9483 11.4876Z" fill="#FCC72A"/>
<path d="M33.323 18.8419C17.093 13.6203 12.9644 5.55227 12.1914 3.63477L12.0999 3.68595C12.2654 5.28368 12.5036 10.6721 8.9809 15.4452C8.19329 16.5121 7.18779 17.4007 6.06346 18.1132C5.91374 18.2087 5.76694 18.3122 5.62305 18.4215C5.61956 23.8226 7.00079 34.0422 17.1472 36.6016C31.1157 40.126 34.7566 21.395 34.7566 21.395C34.8027 20.7179 34.8133 20.0389 34.7881 19.3607C33.9323 18.8897 33.323 18.8419 33.323 18.8419Z" fill="#F4D1B3"/>
<path d="M24.8588 16.7004C24.8325 16.6619 24.8152 16.6182 24.8082 16.5723C24.8012 16.5265 24.8046 16.4796 24.8183 16.4352C24.8319 16.3909 24.8553 16.35 24.8869 16.3157C24.9185 16.2814 24.9575 16.2544 25.0009 16.2368L25.0685 16.2092C25.2019 16.1569 25.337 16.1109 25.4763 16.0723C25.6155 16.0338 25.7518 16.0027 25.8882 15.9688C26.0245 15.9349 26.1678 15.9234 26.3064 15.9015C26.8661 15.8326 27.4343 15.885 27.9714 16.0551C28.1045 16.0922 28.2337 16.1421 28.357 16.204C28.4839 16.254 28.6054 16.3163 28.72 16.3898L29.0409 16.5946C29.0534 16.6025 29.0653 16.6114 29.0765 16.621L29.3619 16.866L29.5105 16.9949L29.6404 17.1421L29.8868 17.4233L29.906 17.4469C30.0581 17.6488 30.1903 17.8633 30.3307 18.0675C30.156 17.8898 29.9876 17.7051 29.8064 17.5384C29.7988 17.5315 29.7913 17.5246 29.7831 17.5182L29.5 17.2939L29.3544 17.1789L29.1936 17.0834L28.8959 16.9109C28.8826 16.9033 28.8688 16.8965 28.8545 16.8908L28.5382 16.7619C28.4276 16.7156 28.3124 16.6807 28.1945 16.6578C28.0807 16.6235 27.9635 16.6011 27.845 16.5911C27.3823 16.5306 26.9118 16.571 26.4666 16.7096C26.3606 16.7481 26.254 16.7803 26.1503 16.8212L26.1311 16.8292C26.0291 16.8764 25.9248 16.9126 25.8276 16.9672C25.7303 17.0219 25.6254 17.0736 25.5299 17.1329C25.4603 17.1764 25.3763 17.1914 25.2956 17.1749C25.2149 17.1584 25.144 17.1116 25.0976 17.0443L24.8588 16.7004Z" fill="#4A2407"/>
<path d="M31.6304 21.7204C31.6304 21.7204 26.7475 14.8803 23.5195 22.4106C23.5195 22.4106 27.4122 26.7879 31.6304 21.7204Z" fill="#FFF3C6"/>
<path d="M31.6304 21.7206C29.7663 17.5221 26.9228 18.0224 26.9228 18.0224C23.5626 18.5838 23.5195 22.4107 23.5195 22.4107C26.7475 14.8805 31.6304 21.7206 31.6304 21.7206Z" fill="#3C3A3B"/>
<path d="M29.7459 21.6726C29.9637 20.4394 29.1276 19.2654 27.8785 19.0504C26.6294 18.8354 25.4402 19.6608 25.2225 20.894C25.0047 22.1272 25.8407 23.3013 27.0899 23.5163C28.339 23.7313 29.5281 22.9058 29.7459 21.6726Z" fill="#CB9114"/>
<path d="M28.6042 21.6367C29.1701 20.9345 29.0523 19.9124 28.3411 19.3537C27.6299 18.795 26.5945 18.9112 26.0286 19.6134C25.4627 20.3156 25.5805 21.3377 26.2917 21.8964C27.0029 22.4551 28.0382 22.3389 28.6042 21.6367Z" fill="#302411"/>
<path d="M27.4085 20.5566C27.6694 20.189 27.5792 19.6823 27.2069 19.4246C26.8347 19.167 26.3213 19.2561 26.0604 19.6236C25.7994 19.9911 25.8897 20.4979 26.2619 20.7555C26.6342 21.0132 27.1475 20.9241 27.4085 20.5566Z" fill="white"/>
<path d="M15.5472 16.7004C15.5734 16.6619 15.5907 16.6182 15.5977 16.5723C15.6047 16.5265 15.6013 16.4796 15.5877 16.4352C15.5741 16.3909 15.5506 16.35 15.519 16.3157C15.4874 16.2814 15.4485 16.2544 15.405 16.2368L15.3374 16.2092C15.2034 16.1569 15.0689 16.1109 14.9296 16.0723C14.7904 16.0338 14.6541 16.0027 14.5178 15.9688C14.3815 15.9349 14.2382 15.9234 14.0995 15.9015C13.5398 15.8326 12.9716 15.885 12.4346 16.0551C12.3014 16.0922 12.1722 16.1421 12.0489 16.204C11.922 16.254 11.8005 16.3163 11.686 16.3898L11.3679 16.5946C11.3554 16.6025 11.3436 16.6114 11.3324 16.621L11.0469 16.866L10.8984 16.9949L10.7685 17.1421L10.522 17.4233L10.5028 17.4469C10.3508 17.6488 10.2185 17.8633 10.0781 18.0675C10.2529 17.8898 10.4213 17.7051 10.6024 17.5384C10.61 17.5315 10.6176 17.5246 10.6257 17.5182L10.9088 17.2939L11.0545 17.1789L11.2153 17.084L11.513 16.9115C11.5261 16.9039 11.5397 16.8972 11.5537 16.8913L11.8706 16.7625C11.9813 16.7161 12.0964 16.6813 12.2144 16.6584C12.3282 16.6241 12.4453 16.6017 12.5639 16.5917C13.0266 16.5312 13.4971 16.5716 13.9422 16.7102C14.0482 16.7487 14.1548 16.7809 14.2585 16.8217L14.2778 16.8298C14.3797 16.8769 14.484 16.9132 14.5813 16.9678C14.6786 17.0225 14.7834 17.0742 14.879 17.1335C14.9486 17.1769 15.0326 17.192 15.1132 17.1755C15.1939 17.159 15.2649 17.1121 15.3112 17.0449L15.5472 16.7004Z" fill="#4A2407"/>
<path d="M8.77539 21.7209C8.77539 21.7209 13.6584 14.8819 16.8857 22.4111C16.8857 22.4111 12.9937 26.7884 8.77539 21.7209Z" fill="#FFF3C6"/>
<path d="M8.77539 21.7206C10.6396 17.5221 13.483 18.0224 13.483 18.0224C16.8432 18.5838 16.8857 22.4107 16.8857 22.4107C13.6584 14.8805 8.77539 21.7206 8.77539 21.7206Z" fill="#3C3A3B"/>
<path d="M14.8517 22.5235C15.5416 21.4732 15.2384 20.0696 14.1745 19.3885C13.1106 18.7075 11.6889 19.0068 10.9991 20.0572C10.3092 21.1075 10.6125 22.5111 11.6763 23.1921C12.7402 23.8732 14.1619 23.5738 14.8517 22.5235Z" fill="#CB9114"/>
<path d="M14.4326 21.5676C14.9598 20.8367 14.7871 19.8222 14.0468 19.3016C13.3065 18.7811 12.2789 18.9516 11.7516 19.6825C11.2243 20.4134 11.397 21.4279 12.1373 21.9484C12.8777 22.469 13.9053 22.2985 14.4326 21.5676Z" fill="#302411"/>
<path d="M13.2792 20.3781C13.4377 19.9574 13.2207 19.4896 12.7946 19.3331C12.3685 19.1767 11.8946 19.3909 11.7361 19.8115C11.5777 20.2322 11.7946 20.7001 12.2207 20.8565C12.6468 21.013 13.1207 20.7988 13.2792 20.3781Z" fill="white"/>
<path d="M18.6406 27.7904C18.8868 28.0391 19.1564 28.2642 19.4457 28.4627C19.7236 28.6404 20.0096 28.733 20.2794 28.6928C20.5491 28.6525 20.8299 28.4961 21.0949 28.2861C21.36 28.0762 21.6041 27.8197 21.8825 27.5684C21.7899 27.932 21.6202 28.2722 21.3845 28.5662C21.1445 28.8584 20.8019 29.1414 20.351 29.1989C20.13 29.2285 19.905 29.1995 19.6991 29.1149C19.5087 29.0335 19.3362 28.9163 19.1911 28.7698C18.9181 28.5009 18.7273 28.1614 18.6406 27.7904Z" fill="#CB8B14"/>
<path d="M36.9483 11.4876C33.3015 3.76067 25.0408 -0.847902 16.4633 0.132706C14.6748 0.337454 12.9097 0.784335 11.444 1.63151C11.444 1.63151 -0.641128 9.37572 0.116194 28.3938C0.116194 28.3938 2.06309 20.6605 6.06292 18.1149C7.18725 17.3995 8.19274 16.5137 8.98036 15.4469C12.5031 10.6732 12.2648 5.28535 12.0994 3.68762L12.1908 3.63644C12.9639 5.55394 17.0924 13.622 33.3224 18.8436C33.3224 18.8436 38.4489 19.2462 39.8471 29.2156C39.8465 29.2139 40.8968 19.8524 36.9483 11.4876Z" fill="#FCC72A"/>
<path d="M12.1907 3.63477L12.0993 3.68595C12.2647 5.28368 12.503 10.6721 8.98027 15.4452C8.19266 16.5121 7.18716 17.4007 6.06283 18.1132C5.78797 18.2897 5.52614 18.4851 5.2793 18.6982C15.1507 13.76 13.0273 5.70756 12.2117 3.6871L12.1907 3.63477Z" fill="#231F20"/>
<path d="M25.7352 30.6348H14.7383C14.7383 30.6348 15.4851 34.062 20.2143 34.1609H20.2627C24.9883 34.062 25.7352 30.6348 25.7352 30.6348Z" fill="#683B09"/>
<path d="M20.2175 32.973H20.2542C22.1865 32.9443 23.2573 32.4031 23.8369 31.9004H16.6348C17.2144 32.4031 18.2846 32.9443 20.2175 32.973Z" fill="#1B150B"/>
<path d="M24.4794 31.0381H15.9922C15.9922 31.0381 16.1198 31.4545 16.633 31.9008H23.8351C24.3519 31.4545 24.4794 31.0381 24.4794 31.0381Z" fill="#EBEAE9"/>
<path d="M5.62549 18.8756L5.622 18.5225L5.27888 18.695C3.50383 20.2157 2.19133 22.7152 1.33789 24.7961C2.63349 24.7719 5.9925 24.9324 7.00324 27.1541C5.9494 24.214 5.65812 21.1756 5.62549 18.8756Z" fill="black"/>
<path d="M7.00489 27.1547C5.99415 24.9353 2.63572 24.7742 1.34012 24.7967C0.855088 25.9673 0.446463 27.1674 0.116752 28.3896L0.0823833 34.9277C0.0823833 34.9277 -0.582314 37.8034 1.86442 38.1485L2.02346 38.1703C5.3418 38.6035 8.71671 38.2688 11.8815 37.1926C13.2213 36.74 14.4843 36.3604 14.8071 36.4093L14.87 35.8422C10.6022 34.0408 8.26204 30.6682 7.00489 27.1547Z" fill="#231F20"/>
<path d="M36.9483 11.4876C33.3015 3.76067 25.0408 -0.847902 16.4633 0.132706C14.6748 0.337454 12.9097 0.784335 11.444 1.63151C11.444 1.63151 -0.641128 9.37572 0.116194 28.3938C0.116194 28.3938 2.06309 20.6605 6.06292 18.1149C7.18725 17.3995 8.19274 16.5137 8.98036 15.4469C12.5031 10.6732 12.2648 5.28535 12.0994 3.68762L12.1908 3.63644C12.9639 5.55394 17.0924 13.622 33.3224 18.8436C33.3224 18.8436 38.4489 19.2462 39.8471 29.2156C39.8465 29.2139 40.8968 19.8524 36.9483 11.4876Z" fill="#FCC72A"/>
<path d="M34.7868 19.3604C34.8119 20.0385 34.8014 20.7175 34.7553 21.3946C34.7553 21.3946 34.3668 23.3921 33.3572 25.9589C33.2442 26.3423 33.1199 26.7242 32.9844 27.1046C34.0085 24.8552 37.3588 24.6459 38.7633 24.6608C37.5673 21.3595 35.9676 19.9792 34.7868 19.3604Z" fill="black"/>
<path d="M33.3228 18.8413C25.8469 16.4361 20.9383 13.427 17.7429 10.6934L17.733 10.6847C15.9854 9.21182 14.762 7.80907 13.9179 6.62716C13.7532 6.40171 13.6017 6.18488 13.4635 5.97668C13.418 5.90767 13.3738 5.84037 13.3307 5.77366L13.3278 5.76906C13.2852 5.70349 13.2445 5.63907 13.2048 5.57581L13.2002 5.56834C13.1613 5.50584 13.1225 5.4443 13.0837 5.38372C13.0819 5.38052 13.08 5.37745 13.0778 5.37451C13.0417 5.3147 13.0068 5.25603 12.973 5.19852L12.9666 5.18759L12.8699 5.02023L12.8635 5.00873C12.8326 4.95121 12.8052 4.9006 12.7737 4.84826C12.7737 4.84481 12.7697 4.84079 12.7673 4.83676C12.7388 4.785 12.7091 4.73381 12.6846 4.68435C12.6846 4.68032 12.6805 4.6763 12.6782 4.67285C12.652 4.62281 12.6264 4.5745 12.6019 4.52676L12.5966 4.51641C12.5722 4.46925 12.5483 4.42266 12.5262 4.37723L12.5215 4.3686C12.4988 4.32316 12.4772 4.27888 12.4563 4.23574L12.4528 4.22827C12.4318 4.18513 12.412 4.14257 12.3945 4.10231V4.09656C12.3753 4.05515 12.3572 4.01489 12.3397 3.97636C12.3217 3.93667 12.3048 3.89871 12.2891 3.86133C12.2891 8.32439 20.16 16.2411 34.792 19.3647C34.4803 19.2347 34.1512 19.095 33.8017 18.946C33.6458 18.8962 33.4854 18.8612 33.3228 18.8413Z" fill="#231F20"/>
<path d="M36.9483 11.4876C33.3015 3.76067 25.0408 -0.847902 16.4633 0.132706C14.6748 0.337454 12.9097 0.784335 11.444 1.63151C11.444 1.63151 -0.641128 9.37572 0.116194 28.3938C0.116194 28.3938 2.06309 20.6605 6.06292 18.1149C7.18725 17.3995 8.19274 16.5137 8.98036 15.4469C12.5031 10.6732 12.2648 5.28535 12.0994 3.68762L12.1908 3.63644C12.9639 5.55394 17.0924 13.622 33.3224 18.8436C33.3224 18.8436 38.4489 19.2462 39.8471 29.2156C39.8465 29.2139 40.8968 19.8524 36.9483 11.4876Z" fill="#3C3A3B"/>
<path d="M33.4395 25.7504C33.447 25.7303 33.4552 25.7102 33.4628 25.6895C33.4552 25.7125 33.4476 25.7326 33.4395 25.7504Z" fill="#231F20"/>
<path d="M38.5684 24.1475C38.5922 24.205 38.6161 24.2671 38.64 24.3286L38.5684 24.1475Z" fill="#231F20"/>
<path d="M33.541 25.4871C33.541 25.483 33.5439 25.4784 33.5457 25.4744C33.5474 25.4704 33.5428 25.483 33.541 25.4871Z" fill="#231F20"/>
<path d="M39.8771 28.8898C39.8602 29.1009 39.8474 29.2136 39.8474 29.2136C39.5928 27.3968 39.2141 25.898 38.7656 24.6608C37.361 24.6459 34.0107 24.8552 32.9866 27.1046C33.1229 26.7239 33.2472 26.342 33.3594 25.9589L33.3717 25.9267C32.0592 29.2769 29.687 33.6117 25.7344 35.7426L25.8509 36.343L31.3269 38.4463C32.9499 39.0697 34.7599 39.0789 36.3695 38.421C37.7379 37.8625 39.0895 36.7795 39.6161 34.6999C40.0781 32.8692 40.0682 30.7792 39.8771 28.8898Z" fill="#231F20"/>
<path d="M17.1483 36.6009C16.3707 36.4062 15.6094 36.1528 14.8711 35.8428L14.7383 37.0426C14.7383 37.0426 15.6028 38.8744 20.2609 38.8744C25.0041 38.8744 25.9117 36.6549 25.9117 36.6549L25.7334 35.7422C23.4399 36.9799 20.6116 37.4751 17.1483 36.6009Z" fill="#D8BAA4"/>
<path d="M11.7041 2.5154C12.3595 3.47472 14.3093 5.02414 20.1179 5.69877C25.2858 6.29864 26.847 6.5448 27.2612 6.64545C27.0078 6.05191 24.9642 1.81431 17.913 0.659431C17.913 0.659431 15.5157 0.435702 14.6273 0.457558C13.4896 0.713493 12.4026 1.09538 11.4448 1.64924C11.4448 1.64924 9.54163 2.86911 7.29297 5.52911C10.8763 6.71044 11.5835 4.04583 11.7041 2.5154Z" fill="#585858"/>
</g>
<defs>
<clipPath id="clip0_1848_150">
<rect width="40" height="39" fill="white"/>
</clipPath>
</defs>
</svg>
