<svg width="29" height="29" viewBox="0 0 29 29" fill="none" xmlns="http://www.w3.org/2000/svg">
<g clip-path="url(#clip0_1845_779)">
<path d="M29 21.6097C29 23.2 27.7371 24.4629 26.1935 24.4629H2.80645C1.2629 24.4629 0 23.2 0 21.6097V7.39034C0 5.80001 1.2629 4.53711 2.80645 4.53711H26.1935C27.7371 4.53711 29 5.80001 29 7.39034V21.6097Z" fill="#009966"/>
<path d="M2.80664 4.53711H26.1937C27.7373 4.53711 29.0002 5.80001 29.0002 7.39034V21.6097C29.0002 23.2 27.7373 24.4629 26.1937 24.4629" fill="#038E5C"/>
<path d="M29 21.6094C29 23.1997 27.7371 24.4626 26.1935 24.4626H2.80645C1.2629 24.4626 0 23.1997 0 21.6094" fill="#007A54"/>
<path d="M2.80664 4.53711H26.1937C27.7373 4.53711 29.0002 5.80001 29.0002 7.39034V12.5823" fill="#007A54"/>
<path d="M3.55428 9.074C3.74138 8.93368 3.74138 9.30787 3.55428 9.72884C3.64783 9.58852 3.83493 9.2611 3.78816 9.02723C3.74138 8.69981 3.55428 8.74658 3.41396 8.93368C3.32041 9.074 3.36719 9.16755 3.55428 9.074Z" fill="white"/>
<path d="M3.60112 11.7404C3.83499 11.3194 3.74144 10.992 3.92854 10.384C4.06886 10.0098 4.06886 10.2904 4.06886 10.5243C3.97531 11.1323 4.02209 12.1146 4.86402 12.0678C4.9108 12.6291 5.05112 13.6114 5.05112 13.9856C5.05112 14.313 5.09789 14.2194 5.19144 14.0323C5.28499 13.8453 5.23822 13.6114 5.23822 13.3307C5.23822 13.0501 5.19144 12.5356 5.14467 11.834C5.23822 11.7404 5.37854 11.6001 5.42531 11.5065C5.51886 11.2727 5.56564 11.3194 5.61241 11.5065C5.70596 11.8807 6.08015 12.1146 6.54789 11.7404C7.01564 11.413 6.82854 10.7582 6.59467 10.0565C6.78176 10.1033 6.82854 9.96299 6.73499 9.77589C6.68822 9.68235 6.59467 9.5888 6.54789 9.49525C6.45434 9.4017 6.40757 9.30815 6.31402 9.4017C6.22047 9.49525 6.1737 9.5888 6.12693 9.63557C6.08015 9.68235 6.08015 9.7759 6.12693 9.91622C6.31402 10.3372 6.40757 10.8049 6.45434 11.0388C6.50112 11.2727 6.40757 11.3194 6.22047 11.3194C6.08015 11.3194 5.84628 11.2727 5.75273 10.8985C5.65918 10.5243 5.61241 10.384 5.65918 10.1033C5.65918 9.86944 5.70596 9.68235 5.51886 9.44848C5.33176 9.2146 5.33176 9.26138 5.28499 9.35493C5.23822 9.49525 5.19144 9.68235 5.23822 9.91622C5.33176 10.2436 5.37854 10.5243 5.42531 10.7114C5.47209 10.8517 5.33176 11.1323 5.09789 11.2727C5.05112 10.8049 5.00434 10.2436 4.95757 9.72912C5.23822 9.63557 5.09789 9.30815 4.86402 8.93396C4.7237 8.65331 4.63015 8.74686 4.5366 8.93396C4.44305 9.12106 4.48983 9.2146 4.58338 9.35493C4.5366 9.49525 4.63015 9.68235 4.67693 10.0098C4.7237 10.2436 4.77047 10.8517 4.77047 11.3662C4.58338 11.3662 4.44305 11.2259 4.34951 11.0388C4.20918 10.6646 4.20918 10.2904 4.30273 10.1033C4.39628 9.86944 4.44305 9.54202 4.30273 9.44848C4.16241 9.35493 4.02209 9.44848 3.92854 9.63557C3.74144 9.91622 3.55434 10.2904 3.55434 10.7114C3.55434 10.8517 3.50757 11.1791 3.41402 11.3194C3.36725 11.4598 3.22693 11.4598 3.13338 11.2727C2.94628 10.992 2.89951 10.2436 2.89951 9.86944C2.89951 9.68235 2.85273 9.63557 2.80596 9.86944C2.61886 10.6178 2.85273 11.3662 2.99305 11.6936C3.22693 12.1146 3.4608 12.0211 3.60112 11.7404Z" fill="white"/>
<path d="M5.84659 9.30802C5.94014 9.21447 5.94014 9.21447 5.98691 9.30802C6.03369 9.40157 6.17401 9.40157 6.22079 9.30802C6.26756 9.21447 6.31433 9.1677 6.26756 9.02737C6.22079 8.93383 6.22079 8.9806 6.17401 9.07415C6.12724 9.26125 5.94014 9.21447 5.94014 8.9806C5.94014 8.74673 5.89337 8.88705 5.79982 9.02737C5.70627 9.26125 5.56595 9.21447 5.56595 8.9806C5.56595 8.84028 5.51917 8.69996 5.42562 8.88705C5.37885 9.02737 5.42562 9.1677 5.4724 9.26125C5.61272 9.40157 5.75304 9.40157 5.84659 9.30802Z" fill="white"/>
<path d="M4.44262 12.8165C4.58294 12.7697 4.58294 12.7697 4.58294 12.5826C4.58294 12.3955 4.4894 12.4891 4.3023 12.5359C4.02165 12.6294 3.46036 12.9101 3.0394 13.4246C2.8523 13.6584 2.99262 13.5649 3.13294 13.4713C3.36682 13.2842 4.06843 12.9101 4.44262 12.8165Z" fill="white"/>
<path d="M3.50839 15.8101C3.36807 16.0439 3.08742 15.7165 3.27452 15.1084C3.32129 14.9681 3.36807 14.8746 3.36807 14.781C3.36807 14.6875 3.36807 14.5939 3.36807 14.4536C3.36807 14.3601 3.27452 14.5004 3.22774 14.6875C3.18097 14.9681 2.99387 15.1084 3.04065 15.9972C3.08742 16.5117 3.69549 16.5117 3.74226 15.8568C3.74226 15.5762 3.64871 15.5762 3.50839 15.8101Z" fill="white"/>
<path d="M7.67001 13.8457C7.67001 13.6119 7.62323 13.378 7.62323 13.1441C7.67001 13.1441 7.67001 13.0973 7.71678 13.0973C7.85711 13.5183 8.46517 13.4248 8.65227 13.1441C8.74581 13.0038 8.74581 13.0038 8.83936 13.1441C8.97969 13.3312 9.44743 13.4248 9.54098 13.1441C9.63452 12.8635 9.63452 12.5828 9.58775 12.3957C9.54098 12.1619 9.4942 12.2086 9.35388 12.3022C9.21356 12.3957 9.30711 12.4425 9.35388 12.5828C9.40065 13.1441 8.93291 13.0973 8.88614 12.536C8.83936 12.1619 8.79259 12.3022 8.74581 12.4893C8.51194 13.1909 7.90388 13.3312 7.99743 12.4893C7.99743 12.2554 7.85711 12.349 7.76356 12.4425C7.71678 12.4893 7.62323 12.5828 7.57646 12.6296C7.52969 11.9748 7.48291 11.2264 7.38936 10.2909C7.57646 10.5248 7.76356 10.2441 7.62323 10.0102C7.52969 9.82314 7.38936 9.3554 7.29581 9.12153C7.20227 8.88766 7.15549 8.93444 6.96839 9.16831C6.7813 9.3554 6.82807 9.40218 6.87485 9.63605C6.87485 9.91669 6.87485 10.1506 6.96839 10.6651C7.01517 11.0393 7.10872 11.8344 7.20227 12.8167C7.10872 12.8635 6.96839 12.957 6.87485 13.0038C6.82807 12.8167 6.68775 12.7231 6.50065 12.536C6.22001 12.2554 6.03291 12.2554 5.79904 12.5828C5.56517 12.9102 5.61194 12.957 5.61194 13.2844C5.61194 13.5651 5.56517 13.6586 5.79904 13.7522C6.03291 13.8457 6.12646 13.799 6.26678 13.7522C6.36033 13.7054 6.50065 13.6586 6.68775 13.6119C6.73452 13.7522 6.68775 13.9393 6.5942 14.0328C6.03291 14.6877 5.19098 15.2022 4.81678 14.7344C4.62969 14.5006 4.53614 14.1264 4.58291 13.6586C4.62969 13.2844 4.53614 13.4715 4.48936 13.5651C4.34904 13.986 4.30227 14.6409 4.48936 14.9683C4.72323 15.436 5.1442 15.6231 5.79904 15.2957C6.45388 15.0151 7.06194 14.5006 7.06194 13.799C7.06194 13.6586 7.06194 13.5651 7.06194 13.4715C7.15549 13.4248 7.24904 13.378 7.29581 13.3312C7.29581 13.5651 7.29581 13.8925 7.29581 14.1264C7.34259 14.8748 7.01517 15.1086 6.73452 15.3425C6.36033 15.6231 5.84581 15.857 5.37807 15.9038C4.34904 16.0441 4.11517 15.3893 4.11517 14.5006C4.11517 14.3602 4.16194 14.2667 4.16194 14.0796C4.16194 13.7054 4.11517 13.7522 3.97485 14.1264C3.8813 14.5006 3.74098 15.3425 4.0684 16.0441C4.44259 16.7457 5.65872 16.5586 6.5942 16.0909C7.62323 15.5764 7.71678 14.7344 7.67001 13.8457ZM6.36033 13.1441C6.12646 13.2377 6.03291 13.0973 6.07969 12.957C6.07969 12.8167 6.12646 12.7231 6.31356 12.8167C6.4071 12.8635 6.50065 12.957 6.5942 13.0973C6.45388 13.1441 6.4071 13.1441 6.36033 13.1441Z" fill="white"/>
<path d="M8.74569 14.6404C8.83924 14.4533 8.88601 14.2662 8.83924 14.0323C8.79246 13.892 8.83924 13.8452 8.69892 13.7517C8.55859 13.7049 8.51182 13.7985 8.46504 13.892C8.41827 14.0323 8.51182 14.2194 8.69892 14.1259C8.74569 14.2194 8.69892 14.4533 8.65214 14.5936C8.60537 14.7807 8.65214 14.8275 8.74569 14.6404Z" fill="white"/>
<path d="M9.11953 10.8519C8.93244 11.0858 8.79211 11.4132 9.07276 11.6003C9.21308 11.6938 9.49373 11.5535 9.58728 11.3664C9.68082 11.1325 9.63405 11.0858 9.44695 11.3196C9.21308 11.6003 8.93244 11.3664 9.21308 10.9454C9.40018 10.6648 9.25986 10.618 9.11953 10.8519Z" fill="white"/>
<path d="M8.32485 10.8988C8.97968 10.6182 9.35388 10.244 9.54098 9.91656C9.72807 9.96333 9.77485 9.82301 9.6813 9.68268C9.72807 9.54236 9.77485 9.44881 9.82162 9.35527C9.96194 8.7472 9.35388 8.70043 9.21356 9.16817C9.12001 9.40204 9.12001 9.63591 9.3071 9.77623C9.02646 10.1504 8.65227 10.4778 8.18452 10.7585C7.99743 10.9456 8.0442 11.0391 8.32485 10.8988ZM9.44743 9.26172C9.4942 9.12139 9.58775 9.21494 9.58775 9.30849C9.58775 9.35527 9.54098 9.44881 9.4942 9.49559C9.40065 9.44881 9.40065 9.35526 9.44743 9.26172Z" fill="white"/>
<path d="M9.21379 9.16817C9.12024 9.40204 9.12024 9.63591 9.30734 9.77623C9.26057 9.82301 9.21379 9.91656 9.16702 9.96333L9.40089 10.1504C9.44766 10.0569 9.54121 10.0101 9.58798 9.91656C9.77508 9.96333 9.82186 9.82301 9.72831 9.68268C9.77508 9.54236 9.82186 9.44881 9.86863 9.35527C9.96218 8.7472 9.40089 8.70043 9.21379 9.16817ZM9.58798 9.30849C9.58798 9.35527 9.54121 9.44881 9.49444 9.49559C9.40089 9.44881 9.40089 9.35526 9.44766 9.26172C9.49444 9.12139 9.58798 9.21494 9.58798 9.30849Z" fill="#CFE7E8"/>
<path d="M9.91569 14.6402C9.82214 14.6869 9.68182 14.8273 9.58827 14.9208C9.58827 14.7337 9.63505 14.4531 9.63505 14.3595C9.63505 14.2192 9.58827 14.1724 9.49472 14.3127C9.3544 14.5934 9.21408 14.9676 9.16731 15.2482C8.55924 15.6692 7.81085 16.0902 7.29634 16.324C7.06247 16.4176 7.20279 16.5111 7.38989 16.4643C8.0915 16.2305 8.65279 16.0434 9.16731 15.8095C9.21408 16.2305 9.3544 16.5111 9.7286 16.6047C10.4302 16.7918 11.1318 16.1837 11.927 15.1079C12.1141 15.6224 12.5818 16.324 13.798 16.5111C14.3125 16.6047 14.2657 16.5579 14.3592 16.2773C14.406 16.0434 14.4996 15.9966 14.0786 15.9031C13.5641 15.716 13.377 15.3418 13.8915 15.1079C14.406 14.874 15.1076 14.6869 15.5754 14.5934C15.9028 14.5466 15.9963 14.5466 16.0899 14.266C16.1834 13.9385 16.2302 13.8918 15.9028 13.9385C15.5286 13.9853 13.7512 14.0321 13.2834 13.9853C13.6576 13.7982 14.1721 13.6111 14.5463 13.4708C14.6867 13.5643 14.7334 13.5176 14.6867 13.424C14.827 13.3773 14.9673 13.3305 15.1076 13.2369C15.5286 13.0031 15.7157 12.4885 15.2479 12.1611C14.7802 11.8337 14.406 11.7402 14.1721 12.0676C13.985 12.3482 13.798 12.6289 14.0786 13.0031C13.6576 13.1434 13.2834 13.2837 12.9092 13.424C12.6286 13.5176 12.4883 13.5643 12.3947 13.9385C12.3012 14.3127 12.2544 14.3127 12.6286 14.3595C13.1431 14.3595 13.6109 14.3595 13.9383 14.6402C13.4238 14.8273 13.0496 15.2014 13.2367 15.716C13.0028 15.6692 12.7689 15.5756 12.5818 15.3885C12.2076 15.0143 12.2076 14.3595 12.0673 13.6111C11.927 12.8627 11.5996 12.2079 11.4592 11.9273C11.3657 11.6466 11.3189 11.7869 11.2254 11.974C11.1318 12.1611 11.0383 12.2547 11.1318 12.5353C11.3189 13.0031 11.5996 13.9385 11.7399 14.4998C11.4592 15.1547 10.7109 15.9498 10.1028 16.0434C9.63505 16.1369 9.49472 15.8563 9.5415 15.6224C9.86892 15.4353 10.1496 15.2014 10.4302 14.9208C10.9915 14.3127 11.085 13.845 10.7109 12.8627C10.9447 12.9095 10.898 12.7224 10.5705 12.3014C10.3367 12.0208 10.2899 12.0676 10.1496 12.3482C10.056 12.5821 9.96247 12.7692 10.2431 12.8627C10.2899 13.0031 10.3834 13.1902 10.5238 13.424C10.8044 14.0321 10.3367 14.266 9.91569 14.6402ZM14.3592 12.5821C14.3592 12.4418 14.406 12.4418 14.6399 12.5821C14.8738 12.7224 15.0609 12.7692 14.7334 12.816C14.6399 12.8627 14.4996 12.8627 14.406 12.9095C14.406 12.7692 14.406 12.6756 14.3592 12.5821Z" fill="white"/>
<path d="M15.8571 13.9382C15.6232 13.9382 14.5942 13.985 13.8926 13.985L14.8281 14.7801C15.0619 14.6866 15.3426 14.6398 15.5297 14.5931C15.8571 14.5463 15.9506 14.5463 16.0442 14.2656C16.1377 13.9382 16.1845 13.8914 15.8571 13.9382Z" fill="#CFE7E8"/>
<path d="M11.2734 11.7402L11.367 11.8338C11.367 11.7402 11.3202 11.7402 11.2734 11.7402Z" fill="#CFE7E8"/>
<path d="M13.659 13.7518C13.9397 13.6114 14.2671 13.5179 14.501 13.4243C14.6413 13.5179 14.6881 13.4711 14.6413 13.3776C14.7816 13.3308 14.922 13.284 15.0623 13.1905C15.4832 12.9566 15.6703 12.4421 15.2026 12.1147C14.7349 11.7872 14.3607 11.6937 14.1268 12.0211C13.9397 12.3018 13.7526 12.5824 14.0332 12.9566C13.7058 13.0502 13.4252 13.1437 13.1445 13.284L13.659 13.7518ZM14.6881 12.5824C14.922 12.7227 15.109 12.7695 14.7816 12.8163C14.6881 12.8631 14.5478 12.8631 14.4542 12.9098C14.4074 12.7695 14.4074 12.676 14.4074 12.6292C14.3607 12.4421 14.4542 12.4421 14.6881 12.5824Z" fill="#CFE7E8"/>
<path d="M15.436 16.3711C15.5764 16.3243 15.8102 16.184 15.9973 16.0437C16.1844 15.8566 16.0441 15.9033 15.9038 15.9501C15.7635 15.9969 15.6231 16.0904 15.436 16.1372C15.2489 16.2308 15.2022 16.1372 15.2957 15.8098C15.3893 15.5291 15.2957 15.5291 15.1554 15.5759C15.0151 15.6227 14.9683 15.7162 14.828 15.8098C14.7344 15.8566 14.7344 15.9501 14.9683 15.8566C15.1554 15.763 15.1086 15.8566 15.0618 16.0904C14.9683 16.3243 15.1086 16.4646 15.436 16.3711Z" fill="white"/>
<path d="M11.0861 11.2723C11.2264 10.9449 11.32 10.6174 11.4135 10.3836C11.5071 10.1497 11.6006 10.1965 11.5539 10.4303C11.5071 10.8513 11.5071 11.5061 11.9281 11.7868C12.349 12.0207 13.0039 11.5997 13.2377 11.132C13.9393 12.0207 14.5474 11.5997 14.5942 10.7578C14.5942 10.4771 14.5006 9.91582 14.4071 9.72873C14.3135 9.54163 14.4071 9.54163 14.5006 9.63518C14.5942 9.72873 14.7813 9.82227 14.6877 9.49485C14.5942 9.21421 14.4539 9.02711 14.3135 8.88679C14.1732 8.74647 14.1264 8.84002 14.0797 8.93357C14.0329 9.02711 14.0329 9.07389 13.9393 9.16744C13.8458 9.26098 13.8926 9.30776 13.9393 9.44808C14.22 10.1029 14.4539 11.0852 14.0329 11.1787C13.6587 11.2723 13.4248 10.4303 13.4248 10.0561C13.4248 9.5884 13.3313 9.16744 13.2377 8.88679C13.1442 8.60615 13.0974 8.60615 13.0039 8.74647C12.9571 8.84002 12.9571 8.93356 12.8635 9.02711C12.8168 9.12066 12.8635 9.16744 12.9103 9.35453C13.1442 10.4303 13.0974 10.8981 12.6297 11.1787C12.1619 11.4594 11.8813 11.1787 11.8813 10.8513C11.8813 10.5239 11.8813 10.1029 11.9281 9.82227C11.9748 9.54163 12.0216 9.44808 11.9281 9.30776C11.8345 9.16744 11.741 9.21421 11.6006 9.40131C11.32 9.82227 10.9926 10.5239 10.899 10.8513C10.8055 11.1787 10.5716 11.0852 10.4313 10.8045C10.2442 10.4771 10.291 9.86905 10.3377 9.5884C10.3845 9.35453 10.3845 9.26098 10.2442 9.49485C10.0103 10.1497 10.0103 10.8045 10.5248 11.3658C10.7587 11.7868 10.9458 11.5997 11.0861 11.2723Z" fill="#CFE7E8"/>
<path d="M12.3959 10.0098C12.3959 10.1501 12.3959 10.3372 12.4895 10.0565C12.5363 9.77588 12.5363 9.40169 12.4427 9.16782C12.3492 8.93394 12.3024 8.88717 12.2088 8.98072C12.1153 9.07427 12.1153 9.12104 12.2088 9.21459C12.3024 9.35491 12.4427 9.68233 12.3959 10.0098Z" fill="#CFE7E8"/>
<path d="M13.3782 12.208C13.3782 12.5822 13.2846 12.5822 13.1443 12.208C13.0975 12.0677 13.0507 12.0677 13.004 12.2548C13.004 12.5822 12.8636 12.629 12.7701 12.3016C12.7233 12.1612 12.7233 12.0209 12.6766 12.2548C12.6298 12.4419 12.6766 12.5822 12.7701 12.7225C12.8636 12.8161 13.004 12.8161 13.0507 12.6758C13.0975 12.5354 13.1443 12.5354 13.2378 12.629C13.3314 12.7225 13.7056 12.629 13.5185 12.1145C13.4249 11.9274 13.3782 11.9741 13.3782 12.208Z" fill="#CFE7E8"/>
<path d="M17.1667 9.26141C17.307 9.35496 17.4473 9.58883 17.4006 9.86948C17.3538 10.1033 17.4006 10.2437 17.5409 9.91625C17.6812 9.58883 17.5877 9.21464 17.4473 8.98077C17.307 8.7469 17.2602 8.84044 17.1667 8.93399C17.0731 9.07431 17.0264 9.21464 17.1667 9.26141Z" fill="#CFE7E8"/>
<path d="M14.781 9.40147C14.781 9.54179 14.8278 9.63534 15.0149 9.68211C15.3891 10.1966 15.8101 10.7579 16.1843 11.2724C16.231 11.7402 16.3246 12.2079 16.3714 12.6289C16.4649 13.5644 16.652 14.8273 16.5117 15.3886C16.4181 15.8095 16.5117 15.9499 16.6988 15.3418C16.8859 14.7337 16.8859 14.1257 16.7456 13.237C16.6988 12.8628 16.6988 12.4418 16.652 11.974C17.2601 12.9563 17.8681 13.8918 18.102 14.5466C18.2423 14.9208 18.3827 14.9676 18.2423 14.4999C18.102 13.845 17.494 12.7224 16.5585 11.3192C16.5117 10.945 16.5117 10.5708 16.5117 10.2902C16.652 10.4305 16.7456 10.337 16.6988 10.1499C16.6052 9.77566 16.4649 9.49502 16.3246 9.12082C16.2778 8.93373 16.0907 8.93373 15.9972 9.1676C15.9036 9.44824 15.9036 9.49502 15.9972 9.68211C15.9972 9.91598 16.044 10.2434 16.0907 10.5708C15.9504 10.337 15.7165 10.0095 15.5294 9.77566C15.7633 9.86921 15.9504 9.82243 15.7165 9.54179C15.4827 9.30792 15.1552 9.02727 14.9681 8.84018C14.781 8.65308 14.6875 8.7934 14.6875 8.93373C14.781 9.1676 14.8278 9.26114 14.781 9.40147Z" fill="#CFE7E8"/>
<path d="M17.4467 10.7111C17.3999 10.9449 17.3063 10.8514 17.2596 10.6643C17.2128 10.5708 17.166 10.6175 17.166 10.8046C17.2128 10.9917 17.2596 11.132 17.3999 10.9917C17.4934 10.8982 17.4934 10.8982 17.6338 10.9917C17.7273 11.0853 17.8209 10.9917 17.8676 10.9449C17.8676 10.8982 17.9144 10.8046 17.8676 10.5708C17.8209 10.3369 17.7741 10.4772 17.7273 10.6643C17.6805 10.8514 17.587 10.8982 17.5402 10.6643C17.5402 10.4772 17.4467 10.524 17.4467 10.7111Z" fill="#CFE7E8"/>
<path d="M18.5237 13.751C18.5705 14.5929 18.664 14.9671 18.1495 15.5752C17.5882 16.1832 17.214 16.3703 16.9801 16.4171C16.6527 16.5106 16.5592 16.651 17.0269 16.6042C17.7285 16.5574 17.8221 16.5574 18.4301 15.8558C18.7576 15.4816 18.8979 15.0139 18.8979 13.8913C18.8511 11.9268 18.6172 11.0848 18.6172 10.009C18.7108 10.1026 18.8511 10.1026 18.8043 9.91548C18.7108 9.68161 18.664 9.40096 18.6172 9.16709C18.5237 8.93322 18.4769 8.83967 18.3834 8.97999C18.2898 9.12032 18.1963 9.16709 18.1495 9.26064C18.1027 9.35419 18.0559 9.49451 18.1495 9.63483C18.4301 11.9268 18.4769 12.909 18.5237 13.751Z" fill="#CFE7E8"/>
<path d="M19.739 13.9855C19.7858 14.4533 19.8793 14.7807 19.739 15.342C19.6922 15.4823 19.7858 15.5759 19.8793 15.342C20.3003 14.5468 20.0197 13.8452 19.9729 13.3775C19.9261 12.6759 19.6455 10.8517 19.5987 10.1033L19.6455 10.1501C19.8326 10.2436 20.0664 10.3372 19.9261 10.0565C19.7858 9.82264 19.6455 9.40167 19.5519 9.12103C19.4584 8.84038 19.4116 8.84038 19.2713 9.07425C18.9906 9.44845 19.1777 9.82264 19.2713 10.2904C19.4584 11.8807 19.6922 13.5178 19.739 13.9855Z" fill="#CFE7E8"/>
<path d="M20.7222 11.3659C20.8625 11.5062 20.956 11.7868 21.0496 11.9272C21.1431 12.161 21.2367 11.9739 21.2367 11.8336C21.2367 11.6933 21.1899 11.2723 21.2367 11.132C21.3302 10.8981 21.4705 11.2256 21.5173 11.0852C21.5641 10.9917 21.4705 10.9449 21.4238 10.8514C21.377 10.711 21.3302 10.7578 21.2367 10.8046C21.1431 10.8981 21.0963 10.9917 21.0963 11.0385C21.0963 11.1788 21.0963 11.3191 21.0963 11.553C21.0963 11.7401 21.0496 11.7401 21.0028 11.6465C20.956 11.5062 20.8157 11.1788 20.7222 11.0852C20.6286 10.9917 20.4883 11.0385 20.4883 11.1788C20.4883 11.3191 20.4883 11.2723 20.4883 11.4127C20.4883 11.5062 20.6754 11.5062 20.7222 11.3659Z" fill="#CFE7E8"/>
<path d="M20.6289 13.1897C20.6289 13.33 20.816 13.1429 20.9563 13.0494C21.0966 12.9559 21.5176 12.6752 21.7047 12.5817C21.8918 12.4881 21.845 12.4413 21.7983 12.2542C21.7983 12.0671 21.6579 12.2075 21.5176 12.3478C21.3773 12.4881 20.9563 12.7688 20.816 12.9091C20.6757 13.0494 20.6289 13.0962 20.6289 13.1897Z" fill="#CFE7E8"/>
<path d="M19.6459 15.7159C19.4588 15.3418 19.4588 14.9676 19.4588 14.6401C19.4588 14.3595 19.4121 14.1256 19.3185 14.5934C19.0379 15.7159 19.225 15.9498 19.5056 16.1837C19.8798 16.5111 20.0201 16.5579 20.2072 16.2305C20.5814 15.6692 20.7217 15.2014 20.9088 14.9208C21.0959 14.6869 21.0959 14.874 21.1895 14.9676C21.4234 15.2482 21.6105 15.3418 21.9379 15.3885C22.2653 15.4353 22.8266 15.1547 22.7798 14.1256C22.733 13.4708 22.6863 12.6289 22.6395 11.6934C22.9669 12.1143 23.2008 12.4885 23.4346 12.8159C23.5282 13.424 23.575 13.9853 23.575 14.4063C23.5282 14.9208 23.6685 14.9208 23.7621 14.4063C23.8088 14.2192 23.8088 13.7514 23.7621 13.2369C24.183 13.7982 24.4169 14.1256 24.5572 14.4063C24.7443 14.7337 24.8379 14.9676 24.7911 14.3595C24.7911 14.1256 24.6975 13.9385 24.4169 13.5176C24.1363 13.1434 23.9024 12.7692 23.6685 12.395C23.575 11.5063 23.4814 10.524 23.4814 10.0095C23.6217 10.103 23.7153 10.0095 23.6217 9.8224C23.575 9.6353 23.4346 9.07401 23.3411 8.88692C23.2475 8.69982 23.154 8.69982 23.0605 8.93369C22.9669 9.12079 22.8734 9.21434 22.9201 9.35466C22.9669 10.2434 23.0604 11.0853 23.2008 11.8337C22.9669 11.5063 22.733 11.1789 22.5459 10.8982C22.5459 10.5708 22.4992 10.2434 22.4992 9.91595C22.6395 10.0095 22.6863 10.0095 22.6395 9.77563C22.5927 9.58853 22.4056 9.12079 22.3121 8.93369C22.2185 8.74659 22.1717 8.74659 22.0782 8.88692C21.9379 9.12079 21.8911 9.30788 22.0314 9.54176C22.0314 9.77563 22.0782 9.96272 22.0782 10.1966C21.9379 10.0095 21.8443 9.8224 21.704 9.68208C21.8443 9.72885 21.9379 9.6353 21.7975 9.49498C21.6572 9.35466 21.3766 9.12079 21.2363 8.98047C21.0959 8.79337 21.0024 8.84014 21.0024 8.98047C21.0024 9.12079 21.0024 9.26111 21.0024 9.40143C21.0024 9.54176 21.0024 9.6353 21.1427 9.86918C21.4701 10.2901 21.8443 10.7111 22.125 11.1321C22.2653 12.6289 22.3121 13.6111 22.3121 14.2192C22.3121 14.5934 22.1717 14.7805 21.9846 14.8272C21.7975 14.874 21.6105 14.7805 21.4234 14.4998C21.0959 14.0321 20.9556 14.1256 20.7217 14.5466C20.4879 14.9676 20.3008 15.295 20.1605 15.5756C20.0669 15.8563 19.833 16.0901 19.6459 15.7159Z" fill="#CFE7E8"/>
<path d="M24.1371 10.5243C24.1371 10.8049 24.2306 10.7582 24.2774 10.5243C24.3242 10.2904 24.3242 9.82267 24.1838 9.54203C24.0435 9.21461 23.9967 9.35493 23.95 9.44848C23.8564 9.5888 23.8564 9.63558 23.9967 9.7759C24.0435 9.91622 24.1371 10.2436 24.1371 10.5243Z" fill="#CFE7E8"/>
<path d="M25.3986 13.4241C25.305 11.4595 25.0711 10.6176 25.1179 9.86922C25.305 10.0095 25.3518 9.96277 25.2582 9.7289C25.1647 9.49503 25.0244 9.21438 24.9308 8.93374C24.8373 8.69987 24.7905 8.74664 24.6502 8.93374C24.5098 9.12083 24.5098 9.26116 24.5566 9.35471C24.8373 11.7402 24.9776 13.0031 25.0244 13.7515C25.0711 14.7805 24.8373 15.3886 23.8082 16.0902C23.4808 16.3241 23.1066 16.5579 23.9018 16.3708C24.6502 16.137 25.4921 15.6224 25.3986 13.4241Z" fill="#CFE7E8"/>
<path d="M22.7788 15.4821C22.6385 15.6692 22.9659 15.7627 23.0127 15.6224C23.1063 15.7627 23.0127 15.9966 22.8724 16.1369C22.6385 16.324 22.7788 16.3708 22.9192 16.2305C23.0595 16.1369 23.4337 15.716 23.1998 15.4353C23.0595 15.3418 22.8724 15.3418 22.7788 15.4821Z" fill="#CFE7E8"/>
<path d="M21.7505 18.9436C21.1424 18.9436 20.5811 18.9436 19.9731 18.9904V18.8033C20.1602 18.5694 20.1134 18.5694 19.9731 18.3356C19.9263 18.242 19.8795 18.1485 19.7392 18.3356C19.5989 18.5227 19.5989 18.5694 19.786 18.8033V18.9904C15.1553 19.0372 10.0569 18.9904 5.66016 18.9436C6.1279 19.7388 7.71822 19.692 9.16822 19.692C10.4779 19.692 14.4069 19.692 19.7392 19.5517V19.7856C19.5521 20.0194 19.5989 20.0194 19.7392 20.2533C19.8795 20.4404 19.9263 20.3468 19.9731 20.2533C20.0198 20.2065 20.0198 20.1598 20.0198 20.1598H20.7214C20.7214 20.2533 20.8618 20.3001 20.9085 20.3001C20.9553 20.3001 21.0956 20.2533 21.0956 20.1598H21.8908C21.9843 20.3001 22.0779 20.3468 22.2182 20.3468C22.4989 20.3468 22.6392 20.0194 22.5924 19.5985C22.5456 18.9904 22.3118 18.8968 21.7505 18.9436ZM21.0956 19.8791C21.0956 19.7856 20.9553 19.7388 20.9085 19.7388C20.8618 19.7388 20.7214 19.7856 20.7214 19.8791H20.0198C20.0198 19.8323 19.9731 19.7856 19.8795 19.692V19.4581C20.4876 19.4581 21.1424 19.4114 21.7973 19.4114C21.7505 19.5517 21.7505 19.692 21.7505 19.8323L21.0956 19.8791Z" fill="white"/>
<path d="M21.75 18.9436C21.1419 18.9436 20.5806 18.9436 19.9726 18.9904V18.8033C20.1597 18.5694 20.1129 18.5694 19.9726 18.3356C19.9258 18.242 19.879 18.1485 19.7387 18.3356C19.5984 18.5227 19.5984 18.5694 19.7855 18.8033V18.9904C19.7855 18.9904 19.7855 18.9904 19.7387 18.9904L20.3935 19.5517C20.8613 19.5517 21.3758 19.5049 21.8435 19.5049C21.7968 19.6452 21.7968 19.7856 21.7968 19.9259H21.0951C21.0951 19.8323 20.9548 19.7856 20.9081 19.7856C20.8613 19.7856 20.7677 19.8323 20.7677 19.8791L21.0951 20.1598V20.113H21.8903C21.9839 20.2533 22.0774 20.3001 22.2177 20.3001C22.4984 20.3001 22.6387 19.9727 22.5919 19.5517C22.5451 18.9904 22.3113 18.8968 21.75 18.9436Z" fill="#CFE7E8"/>
</g>
<defs>
<clipPath id="clip0_1845_779">
<rect width="29" height="29" fill="white"/>
</clipPath>
</defs>
</svg>
