<svg width="20" height="20" viewBox="0 0 20 20" fill="none" xmlns="http://www.w3.org/2000/svg">
<path d="M10.0002 20C7.6866 20 5.4446 19.1979 3.65618 17.7302C1.86776 16.2625 0.643568 14.2201 0.192188 11.951C-0.259193 9.68194 0.0901688 7.32653 1.18075 5.28614C2.27132 3.24576 4.03564 1.64664 6.17307 0.761252C8.31051 -0.124132 10.6888 -0.240998 12.9028 0.430567C15.1167 1.10213 17.0293 2.52058 18.3147 4.44421C19.6 6.36785 20.1786 8.67766 19.9519 10.9801C19.7251 13.2825 18.7071 15.4351 17.0711 17.071C15.1958 18.9464 12.6523 20 10.0002 20ZM9.00015 14L16.0702 6.929L14.6592 5.515L9.00015 11.172L6.17415 8.343L4.76015 9.757L9.00015 14Z" fill="#2DAE72"/>
</svg>
