<svg width="22" height="22" viewBox="0 0 22 22" fill="none" xmlns="http://www.w3.org/2000/svg">
<g clip-path="url(#clip0_1859_2143)">
<path d="M19.3695 18.9319H2.68032C1.46992 18.9319 0.484375 17.9464 0.484375 16.736V5.31704C0.484375 4.10663 1.46992 3.12109 2.68032 3.12109H19.3695C20.5799 3.12109 21.5655 4.10663 21.5655 5.31704V16.736C21.5655 17.9464 20.5799 18.9319 19.3695 18.9319ZM2.68032 3.99947C1.9539 3.99947 1.36275 4.59062 1.36275 5.31704V16.736C1.36275 17.4624 1.9539 18.0535 2.68032 18.0535H19.3695C20.0959 18.0535 20.6871 17.4624 20.6871 16.736V5.31704C20.6871 4.59062 20.0959 3.99947 19.3695 3.99947H2.68032Z" fill="black"/>
<path d="M7.07095 11.0267C5.86054 11.0267 4.875 10.0411 4.875 8.83071C4.875 7.62031 5.86054 6.63477 7.07095 6.63477C8.28135 6.63477 9.26689 7.62031 9.26689 8.83071C9.26689 10.0411 8.28135 11.0267 7.07095 11.0267ZM7.07095 7.51314C6.34453 7.51314 5.75338 8.10429 5.75338 8.83071C5.75338 9.55713 6.34453 10.1483 7.07095 10.1483C7.79737 10.1483 8.38851 9.55713 8.38851 8.83071C8.38851 8.10429 7.79737 7.51314 7.07095 7.51314Z" fill="black"/>
<path d="M10.5873 15.4188C10.3449 15.4188 10.1481 15.222 10.1481 14.9796V14.1012C10.1481 13.3748 9.55697 12.7837 8.83055 12.7837H5.31704C4.59062 12.7837 3.99947 13.3748 3.99947 14.1012V14.9796C3.99947 15.222 3.80272 15.4188 3.56028 15.4188C3.31785 15.4188 3.12109 15.222 3.12109 14.9796V14.1012C3.12109 12.8908 4.10663 11.9053 5.31704 11.9053H8.83055C10.041 11.9053 11.0265 12.8908 11.0265 14.1012V14.9796C11.0265 15.222 10.8297 15.4188 10.5873 15.4188Z" fill="black"/>
<path d="M18.4907 8.39205H13.2204C12.978 8.39205 12.7812 8.19529 12.7812 7.95286C12.7812 7.71043 12.978 7.51367 13.2204 7.51367H18.4907C18.7331 7.51367 18.9299 7.71043 18.9299 7.95286C18.9299 8.19529 18.7331 8.39205 18.4907 8.39205Z" fill="black"/>
<path d="M18.4907 11.9057H13.2204C12.978 11.9057 12.7812 11.709 12.7812 11.4665C12.7812 11.2241 12.978 11.0273 13.2204 11.0273H18.4907C18.7331 11.0273 18.9299 11.2241 18.9299 11.4665C18.9299 11.709 18.7331 11.9057 18.4907 11.9057Z" fill="black"/>
<path d="M18.4907 15.4184H13.2204C12.978 15.4184 12.7812 15.2217 12.7812 14.9792C12.7812 14.7368 12.978 14.54 13.2204 14.54H18.4907C18.7331 14.54 18.9299 14.7368 18.9299 14.9792C18.9299 15.2217 18.7331 15.4184 18.4907 15.4184Z" fill="black"/>
</g>
<defs>
<clipPath id="clip0_1859_2143">
<rect width="21.0811" height="21.0811" fill="white" transform="translate(0.484375 0.486328)"/>
</clipPath>
</defs>
</svg>
