<svg width="23" height="24" viewBox="0 0 23 24" fill="none" xmlns="http://www.w3.org/2000/svg">
<path d="M20.2296 6.65694C21.2162 8.26435 21.7373 10.1141 21.7346 12.0002V12.0005C21.7372 13.8866 21.2162 15.7364 20.2296 17.3438L20.224 17.3526C19.3086 18.8445 18.0259 20.0768 16.4985 20.9316C14.9711 21.7865 13.25 22.2353 11.4997 22.2354C9.74933 22.2354 8.02823 21.7865 6.50082 20.9317C4.97341 20.0768 3.69074 18.8446 2.77537 17.3527L2.76969 17.3438C1.78548 15.7352 1.26466 13.8861 1.26465 12.0004C1.26464 10.1146 1.78545 8.26552 2.76964 6.65698L2.77543 6.64797C3.6908 5.15607 4.97347 3.92385 6.50087 3.06903C8.02826 2.21421 9.74935 1.76536 11.4997 1.76537C13.25 1.76537 14.9711 2.21424 16.4985 3.06907C18.0259 3.92391 19.3085 5.15615 20.2239 6.64805L20.2296 6.65694ZM12.8079 3.51951C12.6129 3.33133 12.3884 3.17628 12.1434 3.06052C11.9422 2.96495 11.7223 2.91536 11.4996 2.91536C11.277 2.91536 11.0571 2.96495 10.8559 3.06052C10.3896 3.29871 9.99042 3.64999 9.69487 4.08225C9.09127 4.95447 8.64395 5.92501 8.37292 6.9505C9.41411 7.01457 10.4563 7.04721 11.4996 7.0484C12.5425 7.0484 13.5848 7.01576 14.6265 6.95049C14.4765 6.42322 14.2891 5.90731 14.0658 5.40668C13.7717 4.7026 13.3446 4.06186 12.8079 3.51951ZM2.43466 11.4254H6.56293C6.58981 10.2734 6.71467 9.12585 6.93616 7.99509C5.80765 7.89578 4.68203 7.75939 3.55928 7.58592C2.90183 8.76545 2.51751 10.0775 2.43466 11.4254ZM3.55928 16.4148C4.68158 16.2409 5.8076 16.1045 6.93734 16.0055C6.71541 14.8748 6.59028 13.7273 6.5633 12.5754H2.43466C2.5175 13.9232 2.90182 15.2353 3.55928 16.4148ZM10.1914 20.4812C10.3864 20.6694 10.6109 20.8245 10.8559 20.9402C11.0571 21.0358 11.277 21.0854 11.4996 21.0854C11.7223 21.0854 11.9422 21.0358 12.1434 20.9402C12.6097 20.702 13.0089 20.3507 13.3044 19.9185C13.908 19.0463 14.3553 18.0757 14.6264 17.0502C13.5852 16.9862 12.5429 16.9535 11.4996 16.9523C10.4568 16.9523 9.41448 16.985 8.37273 17.0502C8.52276 17.5775 8.71015 18.0934 8.93349 18.594C9.22756 19.2981 9.65465 19.9389 10.1914 20.4812ZM20.5646 12.5754H16.4364C16.4095 13.7273 16.2846 14.8749 16.0631 16.0056C17.1917 16.1049 18.3173 16.2413 19.44 16.4148C20.0975 15.2353 20.4818 13.9232 20.5646 12.5754ZM8.09279 8.0845C7.86789 9.18473 7.74087 10.3027 7.71322 11.4254H15.2862C15.2588 10.3027 15.132 9.18472 14.9073 8.08446C13.7727 8.15892 12.6368 8.1969 11.4996 8.19839C10.3633 8.1984 9.22772 8.16044 8.09279 8.0845ZM14.9065 15.9162C15.1314 14.816 15.2584 13.698 15.286 12.5754H7.7131C7.74049 13.698 7.86728 14.816 8.09197 15.9163C9.22661 15.8418 10.3625 15.8039 11.4996 15.8023C12.636 15.8023 13.7716 15.8403 14.9065 15.9162ZM16.436 11.4254H20.5646C20.4818 10.0775 20.0975 8.76545 19.44 7.58592C18.3177 7.75986 17.1917 7.89628 16.062 7.99519C16.2839 9.12587 16.409 10.2734 16.436 11.4254ZM18.7505 17.4733C17.7692 17.3317 16.785 17.2196 15.7979 17.137C15.6205 17.7975 15.3917 18.4432 15.1136 19.068C14.8596 19.643 14.5401 20.1868 14.1614 20.6884C15.9917 20.1271 17.5979 19.0018 18.7505 17.4733ZM5.07555 18.4244C6.12548 19.4754 7.41718 20.2527 8.83741 20.6883C8.81586 20.6604 8.7937 20.6337 8.77246 20.6053C8.04246 19.5544 7.51073 18.3789 7.20348 17.1368C6.21629 17.2204 5.2314 17.3326 4.2488 17.4733C4.50222 17.8089 4.77846 18.1267 5.07555 18.4244ZM4.24879 6.52747C5.23004 6.66905 6.21423 6.78114 7.20137 6.86373C7.37878 6.20318 7.6076 5.55753 7.88572 4.93268C8.13965 4.35768 8.45916 3.81393 8.83789 3.31226C7.00758 3.87359 5.40143 4.99889 4.24879 6.52747ZM17.9237 5.57627C16.8738 4.52534 15.5821 3.748 14.1619 3.31241C14.1834 3.34032 14.2056 3.36699 14.2268 3.39547C14.9568 4.44633 15.4886 5.6218 15.7958 6.8639C16.783 6.78029 17.7679 6.66814 18.7505 6.52746C18.4971 6.19179 18.2208 5.87398 17.9237 5.57627Z" fill="white"/>
</svg>
