<svg width="13" height="12" viewBox="0 0 13 12" fill="none" xmlns="http://www.w3.org/2000/svg">
<path d="M12.0379 11.4127V11.4122H12.0407V7.2789C12.0407 5.25685 11.6033 3.69922 9.22759 3.69922C8.08553 3.69922 7.31912 4.32283 7.00624 4.91405H6.9732V3.88799H4.7207V11.4122H7.06617V7.68651C7.06617 6.70553 7.25305 5.75696 8.47392 5.75696C9.67686 5.75696 9.69479 6.87646 9.69479 7.74943V11.4127H12.0379Z" fill="#000B33"/>
<path d="M0.901367 3.90137H3.24967V11.4256H0.901367V3.90137Z" fill="#000B33"/>
<path d="M2.08177 0.155273C1.33093 0.155273 0.72168 0.761514 0.72168 1.50863C0.72168 2.25575 1.33093 2.87467 2.08177 2.87467C2.8326 2.87467 3.44185 2.25575 3.44185 1.50863C3.44138 0.761514 2.83213 0.155273 2.08177 0.155273V0.155273Z" fill="#000B33"/>
</svg>
