<svg width="22" height="22" viewBox="0 0 22 22" fill="none" xmlns="http://www.w3.org/2000/svg">
<g clip-path="url(#clip0_1859_2133)">
<path d="M19.754 3.12109H2.18646C1.21755 3.12109 0.429688 3.90896 0.429688 4.87786V17.1752C0.429688 18.144 1.21755 18.9319 2.18646 18.9319H19.754C20.7229 18.9319 21.5108 18.144 21.5108 17.1751V4.87786C21.5108 3.90896 20.7229 3.12109 19.754 3.12109ZM2.18646 3.99946H19.754C19.8188 3.99946 19.8758 4.02305 19.9365 4.03639C18.4156 5.42836 13.3724 10.042 11.6076 11.6321C11.4695 11.7565 11.2469 11.9049 10.9703 11.9049C10.6936 11.9049 10.471 11.7565 10.3325 11.6317C8.56781 10.0418 3.52437 5.42795 2.00369 4.03647C2.06454 4.02313 2.12169 3.99946 2.18646 3.99946ZM1.30805 17.1751V4.87786C1.30805 4.79181 1.33399 4.71374 1.35721 4.6351C2.52128 5.70052 6.04018 8.91967 8.32188 10.9945C6.04759 12.9481 2.52779 16.2852 1.35446 17.4041C1.33374 17.3294 1.30805 17.2563 1.30805 17.1751ZM19.754 18.0535H2.18646C2.1163 18.0535 2.05392 18.0291 1.98841 18.0134C3.20086 16.8576 6.74306 13.5013 8.97737 11.5899C9.26863 11.8541 9.5347 12.095 9.74444 12.284C10.1064 12.6109 10.5302 12.7833 10.9702 12.7833C11.4103 12.7833 11.834 12.6108 12.1956 12.2844C12.4054 12.0954 12.6717 11.8543 12.9631 11.5899C15.1975 13.5011 18.7392 16.8571 19.952 18.0134C19.8865 18.0291 19.8242 18.0535 19.754 18.0535ZM20.6324 17.1751C20.6324 17.2563 20.6067 17.3294 20.586 17.4041C19.4123 16.2846 15.8929 12.9479 13.6186 10.9946C15.9004 8.91971 19.4188 5.70085 20.5832 4.63502C20.6065 4.71366 20.6324 4.79177 20.6324 4.87782V17.1751Z" fill="black"/>
</g>
<defs>
<clipPath id="clip0_1859_2133">
<rect width="21.0811" height="21.0811" fill="white" transform="translate(0.429688 0.486328)"/>
</clipPath>
</defs>
</svg>
