<svg width="34" height="40" viewBox="0 0 34 40" fill="none" xmlns="http://www.w3.org/2000/svg">
<g clip-path="url(#clip0_1848_92)">
<path d="M30.6863 27.4998C31.8477 28.607 32.792 27.5628 33.5191 24.367C34.0624 21.1968 34.1457 19.3513 33.769 18.8305C33.4499 18.2117 32.8817 18.7578 32.0645 20.4689C30.2147 24.3692 29.7553 26.7128 30.6863 27.4998ZM33.5283 19.1181C33.5618 19.1557 33.5896 19.1976 33.6108 19.2426C33.7214 19.4028 33.7793 19.7196 33.7844 20.1931L33.7776 20.7191L33.6704 22.0207C33.6044 22.5177 33.5201 23.0789 33.4174 23.7044C32.8575 26.2793 32.13 27.1207 31.2347 26.2285C30.5173 25.5944 30.8715 23.7057 32.2973 20.5623C32.8621 19.327 33.2724 18.8456 33.5283 19.1181Z" fill="#F7BD8E"/>
<path d="M33.6112 19.2422C33.59 19.1973 33.5623 19.1554 33.5288 19.1178C33.2726 18.8454 32.8623 19.3267 32.2978 20.5619C30.872 23.7052 30.5178 25.594 31.2352 26.2281C32.1304 27.1204 32.858 26.279 33.4179 23.704C33.5207 23.0786 33.6051 22.5174 33.6709 22.0204L33.7781 20.7187L33.7849 20.1927C33.7799 19.7194 33.722 19.4025 33.6112 19.2422Z" fill="#FBCC9B"/>
<path d="M3.31409 27.4997C2.15264 28.607 1.20837 27.5628 0.481286 24.367C-0.0620307 21.1968 -0.145341 19.3513 0.231356 18.8305C0.550455 18.2117 1.11863 18.7578 1.93587 20.4689C3.78567 24.3692 4.24508 26.7128 3.31409 27.4998M0.471516 19.118C0.437985 19.1555 0.410237 19.1974 0.389105 19.2424C0.278368 19.4027 0.22047 19.7195 0.215413 20.193L0.222227 20.7189L0.329451 22.0206C0.395362 22.5176 0.479701 23.0788 0.582468 23.7042C1.14233 26.2792 1.86988 27.1206 2.76512 26.2284C3.48251 25.5943 3.12832 23.7055 1.70253 20.5621C1.13813 19.3269 0.727789 18.8455 0.471516 19.118Z" fill="#F7BD8E"/>
<path d="M0.388536 19.2422C0.409667 19.1972 0.437416 19.1553 0.470946 19.1178C0.72722 18.8454 1.13756 19.3267 1.70196 20.5619C3.12775 23.7052 3.48195 25.594 2.76455 26.2281C1.86939 27.1204 1.14184 26.279 0.581898 23.704C0.479046 23.0786 0.394707 22.5174 0.328881 22.0204L0.221658 20.7187L0.214844 20.1927C0.219901 19.7194 0.277798 19.4025 0.388536 19.2422Z" fill="#FBCC9B"/>
<path d="M32.794 20.1505C32.963 19.4367 33.1087 18.7436 33.2312 18.0711C34.1311 13.1269 33.7829 9.28584 32.1866 6.54805C29.4563 2.41143 24.8006 0.244195 18.2195 0.0463343C10.9789 -0.29737 6.3341 1.2711 4.28494 4.75175C0.524831 7.2368 -0.54076 11.9771 1.08816 18.9727C1.12545 19.1341 1.1644 19.2965 1.20503 19.46C1.26348 19.4944 1.35922 20.5073 1.49224 22.4987C1.68672 28.9188 3.41807 33.5607 6.68628 36.4242C10.0143 38.7814 13.4188 39.9736 16.8996 40.0009C20.3683 39.9657 23.7611 38.7735 27.078 36.4242C30.1579 33.7246 31.8829 29.4133 32.2528 23.4902L32.2696 23.4993C32.426 21.6995 32.6008 20.5832 32.794 20.1505ZM28.4424 11.0461C28.7736 11.2034 29.1184 11.3333 29.4729 11.4344C29.0229 12.4746 29.5556 14.3918 31.071 17.1859L31.1703 22.7996C30.2829 27.0623 28.4603 30.0236 25.7024 31.6838C24.6204 32.3143 23.2167 31.7604 21.4913 30.0222C20.24 29.8402 18.7079 29.7595 16.8951 29.7802C15.0707 29.7583 13.5296 29.839 12.2719 30.0222C10.5466 31.7603 9.14287 32.3142 8.06077 31.6838C5.18948 29.955 3.45698 26.8154 2.86326 22.2652C2.86275 19.7664 2.95215 17.9304 3.13145 16.7571C4.56804 14.6777 5.47687 11.9983 5.85794 8.71892C10.6074 11.0549 15.5061 12.0747 20.5541 11.7781C22.8822 11.7141 25.5116 11.4701 28.4424 11.0461ZM30.1311 10.9341C29.2278 10.8599 28.4923 10.5307 27.9248 9.94651C25.9233 10.5774 22.5822 10.7416 17.9013 10.439C8.45114 9.84921 4.54503 7.98607 6.18295 4.84962C7.97326 2.03588 12.7538 0.931358 20.5244 1.53605C26.9757 2.35966 30.6577 4.39228 31.5704 7.63391C33.2547 10.082 33.6876 13.4846 32.8689 17.8417C32.6289 18.2249 32.3306 20.0573 31.9742 23.339L31.3924 23.0242C31.4582 19.795 31.4402 18.0104 31.3384 17.6704C30.2649 14.8374 29.8626 12.5921 30.1316 10.9346M13.8557 31.7911C13.8715 31.7873 13.8875 31.7838 13.9037 31.7808C13.9542 31.7644 14.006 31.7488 14.0591 31.7339C14.9033 31.5489 16.091 31.4822 17.6222 31.5336C18.4826 31.5774 19.1971 31.6826 19.7656 31.849C20.0638 31.9225 20.3295 32.0103 20.5627 32.1124C21.13 32.3604 21.5025 32.6903 21.6803 33.1018C22.1647 34.3894 21.7661 35.2628 20.4847 35.722C19.1459 35.8752 18.3348 35.4765 18.0515 34.5259L15.5284 34.5091C15.2536 35.3195 14.659 35.7511 13.7445 35.8038C12.4952 35.7824 11.8289 35.136 11.7457 33.8647C11.7277 33.0808 12.1804 32.4799 13.1039 32.0621C13.3471 31.9536 13.5988 31.8629 13.8566 31.7911M4.1268 6.14678C4.22417 7.00518 4.70616 7.78911 5.57278 8.49856C5.23851 11.0218 4.3047 13.5729 2.77134 16.1518C2.73517 16.2123 2.69891 16.2728 2.66257 16.3333C2.71337 18.3969 2.63235 20.4614 2.41997 22.5156L1.84143 22.6405C1.63366 20.3036 1.51607 19.0504 1.48864 18.8809C0.301728 11.5858 1.18111 7.34112 4.1268 6.14678Z" fill="#010101"/>
<path d="M5.5723 8.49947C4.70559 7.78968 4.2236 7.00575 4.12632 6.14768C1.18063 7.34162 0.301074 11.5863 1.48765 18.8818C1.51516 19.0513 1.63275 20.3045 1.84043 22.6414L2.41897 22.5165C2.63135 20.4623 2.71237 18.3978 2.66158 16.3342C2.69792 16.2737 2.73417 16.2132 2.77034 16.1527C4.3037 13.5742 5.23751 11.0231 5.57178 8.49947M3.62697 6.83913C3.79839 7.58811 4.2626 8.21366 5.01959 8.71578C4.67992 11.2814 3.82282 13.6857 2.44829 15.9287C2.36669 16.0608 2.28355 17.9263 2.19887 21.5251C1.30268 13.2513 1.77872 8.35603 3.62697 6.83913ZM27.9243 9.94741C28.4919 10.5315 29.2274 10.8607 30.1306 10.935C29.8616 12.5927 30.2639 14.838 31.3374 17.6708C31.4392 18.0109 31.4572 19.7954 31.3914 23.0246L31.9732 23.3394C32.33 20.0578 32.6282 18.2254 32.8679 17.8421C33.6868 13.485 33.254 10.0824 31.5694 7.63433C30.6567 4.39245 26.9747 2.35983 20.5234 1.53646C12.7527 0.931689 7.97218 2.03621 6.18195 4.85003C4.5448 7.9864 8.45109 9.84966 17.9008 10.4398C22.5818 10.742 25.9229 10.5778 27.9243 9.94729M30.6974 10.4946C29.665 10.4761 28.7611 10.0907 27.9859 9.33827C13.6071 9.86538 6.4576 8.81712 6.53731 6.19349C10.4028 1.25261 16.9926 0.50902 26.3067 3.96272C28.7189 4.57908 30.2203 5.88898 30.811 7.89241C32.544 10.0211 32.9963 13.0718 32.1678 17.0444C31.1794 15.7251 30.6893 13.5418 30.6974 10.4946Z" fill="#1B1B1B"/>
<path d="M5.01963 8.71544C4.2629 8.21364 3.79869 7.58809 3.62701 6.83879C1.77876 8.35569 1.30259 13.251 2.19852 21.5247C2.28329 17.926 2.36643 16.0605 2.44794 15.9283C3.82299 13.6855 4.68022 11.2812 5.01963 8.71544ZM27.9865 9.33793C28.7618 10.0904 29.6656 10.4759 30.6981 10.4942C30.69 13.5414 31.1801 15.7247 32.1685 17.0441C32.997 13.0715 32.5447 10.0208 30.8116 7.89207C30.2212 5.88864 28.7197 4.57874 26.3073 3.96238C16.9929 0.50876 10.4029 1.25235 6.53735 6.19315C6.45764 8.81678 13.6074 9.86504 27.9865 9.33793Z" fill="#202121"/>
<path d="M13.7422 35.8038C14.6566 35.751 15.2513 35.3195 15.526 34.5091L18.0491 34.5259C18.3325 35.4765 19.1436 35.8752 20.4824 35.722C21.764 35.2627 22.1625 34.3893 21.678 33.1018C21.5001 32.6903 21.1275 32.3604 20.5604 32.1123C18.1706 33.6943 15.6842 33.6775 13.1012 32.0621C12.1777 32.4797 11.725 33.0806 11.743 33.8647C11.8263 35.1359 12.4926 35.7823 13.7418 35.8038M29.1856 11.7934C28.8393 11.6962 28.5025 11.5709 28.1788 11.4187C25.3151 11.8281 22.7461 12.0638 20.4716 12.1256C15.5398 12.4119 10.7537 11.4273 6.11339 9.17188C5.74115 12.3381 4.85324 14.9251 3.44965 16.9327C3.27445 18.0653 3.18707 19.8381 3.1875 22.251C3.76776 26.6443 5.46054 29.6754 8.26583 31.3443C9.32315 31.9529 10.6945 31.418 12.3799 29.7397C13.6088 29.5625 15.1145 29.4847 16.8971 29.5061C18.6679 29.486 20.1646 29.5638 21.3872 29.7397C23.073 31.418 24.4443 31.9529 25.5013 31.3443C28.1955 29.7414 29.9762 26.8821 30.8434 22.7666L30.7461 17.3467C29.2662 14.6492 28.7461 12.7981 29.1856 11.7934Z" fill="#FBCC9B"/>
<path d="M14.0593 31.7337C14.0062 31.7487 13.9544 31.7643 13.9039 31.7807C13.7187 31.8379 13.5375 31.9063 13.3613 31.9855C15.7565 33.4829 18.0618 33.4984 20.2772 32.0318C20.1112 31.96 19.9404 31.8989 19.7658 31.8489C19.1973 31.6824 18.4828 31.5772 17.6224 31.5335C16.0912 31.4819 14.9035 31.5486 14.0593 31.7337Z" fill="#F6AE9B"/>
<path d="M13.9023 31.7812C13.8861 31.7843 13.8701 31.7877 13.8543 31.7915C13.5965 31.8634 13.3448 31.954 13.1016 32.0626C15.6846 33.6782 18.171 33.6949 20.5608 32.1128C20.328 32.0112 20.0623 31.9234 19.7637 31.8495C19.9382 31.8995 20.1091 31.9606 20.2751 32.0324C18.0597 33.499 15.7544 33.4835 13.3592 31.9861C13.5355 31.9069 13.7169 31.8385 13.9023 31.7812Z" fill="#EEBB88"/>
<path d="M29.473 11.4352C29.1184 11.3341 28.7736 11.2042 28.4424 11.0469C25.5116 11.471 22.8822 11.7149 20.5541 11.7789C15.5058 12.0755 10.6071 11.0558 5.85795 8.71973C5.47689 11.9992 4.56806 14.6785 3.13147 16.7578C2.95225 17.9311 2.86285 19.7671 2.86328 22.2659C3.457 26.8162 5.1895 29.9557 8.06079 31.6844C9.14297 32.3149 10.5467 31.7611 12.2719 30.0229C13.5296 29.8396 15.0706 29.759 16.8952 29.7808C18.7078 29.7602 20.2398 29.8409 21.4914 30.0229C23.2167 31.761 24.6204 32.3149 25.7024 31.6844C28.4602 30.0244 30.2828 27.063 31.1703 22.8003L31.071 17.1865C29.5557 14.3926 29.023 12.4754 29.473 11.4351M28.1798 11.419C28.5035 11.5712 28.8404 11.6966 29.1866 11.7937C28.7471 12.7981 29.2674 14.6492 30.7476 17.347L30.8449 22.7669C29.9777 26.8825 28.1969 29.7418 25.5027 31.3447C24.4454 31.9532 23.074 31.4183 21.3886 29.7401C20.166 29.5642 18.6693 29.4863 16.8985 29.5065C15.1157 29.4849 13.61 29.5628 12.3814 29.7401C10.6957 31.4183 9.32433 31.9532 8.26727 31.3447C5.46223 29.6755 3.76945 26.6444 3.18894 22.2513C3.18842 19.8385 3.27581 18.0657 3.45108 16.933C4.85476 14.9253 5.74267 12.3384 6.11483 9.1722C10.7552 11.4275 15.5412 12.4121 20.473 12.1259C22.7475 12.0642 25.3164 11.8285 28.1798 11.419Z" fill="#F0BB88"/>
<path d="M16.5896 27.773C17.647 27.934 18.5738 27.3739 19.3703 26.0927C17.376 27.1348 15.8932 27.0352 14.9219 25.7939C14.8823 26.8473 15.4382 27.507 16.5896 27.773Z" fill="#EEBE8E"/>
<path d="M21.9789 15.0004L21.8554 14.9791C19.5309 16.0479 19.2487 18.3043 21.0086 21.7485C21.1776 21.9463 21.3576 22.1476 21.5486 22.3524C23.1171 23.7219 25.0927 23.5288 27.4755 21.773C29.7125 19.3746 29.3215 17.2624 26.3025 15.4363C25.0829 14.9139 23.6417 14.7686 21.9789 15.0004Z" fill="#EFBC88"/>
<path d="M22.335 16.0516C21.6293 16.1152 21.2651 15.9368 21.2422 15.5165C21.2639 15.0923 21.4653 14.8003 21.8464 14.6404C22.6235 14.2963 23.871 14.3347 25.5891 14.7556C27.1466 15.1558 27.7584 15.6573 27.4244 16.2602C27.0993 16.7734 26.4067 16.8011 25.3466 16.3432C24.6554 16.079 23.6515 15.9817 22.335 16.0516Z" fill="#010101"/>
<path d="M24.6611 23.3215C26.5731 23.1643 27.8428 22.686 28.4702 21.8865C28.3798 18.6961 26.6394 17.3254 23.2489 17.7745C21.3751 18.1502 20.4113 19.6506 20.3574 22.2759C21.315 23.1309 22.7496 23.4796 24.6611 23.3219M23.2393 17.9651C26.4599 17.5381 28.0314 18.8057 27.9538 21.7679C27.5209 22.5962 26.3968 23.085 24.5814 23.2345C22.7661 23.3839 21.4033 23.0526 20.4931 22.2405C20.5441 19.7465 21.4596 18.3212 23.2393 17.9646V17.9651Z" fill="#ECECEC"/>
<path d="M27.9533 21.7673C28.0305 18.805 26.459 17.5374 23.2389 17.9645C21.4591 18.3212 20.5435 19.7462 20.4922 22.2394C21.4017 23.0513 22.7645 23.3826 24.5806 23.2334C26.3967 23.0841 27.5209 22.5954 27.9533 21.7673Z" fill="white"/>
<path d="M28.4708 21.4993C28.4693 21.5009 28.4679 21.5026 28.4667 21.5044C28.4667 21.5149 28.4667 21.5251 28.4667 21.5353L28.4702 21.628C28.4685 21.6298 28.4672 21.6317 28.466 21.6338C28.4676 21.6746 28.469 21.7155 28.4702 21.7563C28.4684 21.7583 28.4668 21.7604 28.4654 21.7627C28.3302 18.6682 26.5916 17.3426 23.2495 17.7861C21.4088 18.1552 20.4461 19.6093 20.3615 22.1484C20.36 22.1474 20.3587 22.1463 20.3574 22.1451C20.3584 22.1028 20.3595 22.0607 20.3609 22.0189H20.3595L20.3582 22.0176H20.3574C20.3583 21.9754 20.3595 21.9336 20.3609 21.892L20.3574 21.8888C20.4116 19.2639 21.3758 17.7637 23.2501 17.3882C26.6404 16.9379 28.3806 18.3083 28.4708 21.4993Z" fill="#010101"/>
<path d="M28.4702 22.0152C28.469 21.9738 28.4673 21.9326 28.4654 21.8916C27.8367 22.688 26.5686 23.1646 24.6611 23.3214C22.7519 23.4791 21.3184 23.1313 20.3609 22.2779C20.3595 22.3198 20.3584 22.3619 20.3574 22.4041C21.3152 23.2591 22.75 23.608 24.6618 23.4509C26.5736 23.2938 27.843 22.8152 28.4702 22.0152Z" fill="#010101"/>
<path d="M22.6208 18.7325C23.1001 18.2793 23.6781 18.0527 24.3549 18.0527C25.0316 18.0527 25.6102 18.2793 26.0905 18.7325C26.569 19.1889 26.8083 19.7395 26.8083 20.3842C26.8083 21.0289 26.569 21.5798 26.0904 22.0371C25.611 22.4935 25.0324 22.7216 24.3547 22.7215C23.677 22.7214 23.099 22.4933 22.6208 22.0371C22.1417 21.5808 21.9023 21.0299 21.9023 20.3843C21.9023 20.0382 21.9715 19.7184 22.1097 19.4251C22.1555 19.3291 22.2082 19.2362 22.2673 19.1471" fill="#CB9216"/>
<path d="M22.3056 19.9287C22.6365 21.327 23.3508 22.1288 24.4484 22.3339C22.8359 22.4002 22.1217 21.5985 22.3056 19.9287Z" fill="#A87513"/>
<path d="M24.6635 18.6172C25.1548 18.6172 25.5744 18.7775 25.9221 19.0982C26.2699 19.4269 26.4438 19.8235 26.4437 20.2879C26.4436 20.7524 26.2698 21.1492 25.9221 21.4783C25.5744 21.8074 25.1548 21.9719 24.6635 21.9719C24.1721 21.9719 23.7528 21.8074 23.4056 21.4783C23.0583 21.1493 22.8847 20.7525 22.8848 20.2879C22.8848 20.0379 22.9349 19.8076 23.0351 19.5971C23.0682 19.5281 23.1063 19.4613 23.1491 19.3972C23.223 19.2888 23.3092 19.1885 23.4062 19.0982C23.754 18.7775 24.1732 18.6172 24.6641 18.6172M26.229 20.1686C26.229 19.8012 26.091 19.4874 25.815 19.2274C25.539 18.9674 25.2074 18.8378 24.8201 18.8384C24.4313 18.8384 24.0994 18.9681 23.8244 19.2274C23.7476 19.2988 23.6793 19.3781 23.6209 19.4638C23.4804 19.6743 23.4075 19.9192 23.4112 20.1686C23.4112 20.5361 23.549 20.8505 23.8244 21.1118C24.0999 21.3731 24.4318 21.5032 24.8201 21.5022C25.2083 21.5022 25.54 21.372 25.815 21.1118C26.0901 20.8515 26.2278 20.5372 26.2284 20.1686H26.229Z" fill="#2A292A"/>
<path d="M25.5153 19.2601C25.7913 19.5199 25.9293 19.8336 25.9292 20.2013C25.9291 20.569 25.7912 20.8834 25.5153 21.1445C25.2402 21.4047 24.9086 21.5348 24.5203 21.5349C24.132 21.5349 23.8001 21.4048 23.5247 21.1445C23.2492 20.8838 23.1115 20.5694 23.1115 20.2013C23.1077 19.9519 23.1806 19.7069 23.3212 19.4965C23.3795 19.4107 23.4478 19.3315 23.5247 19.2601C23.7997 19.0007 24.1316 18.871 24.5203 18.8711C24.909 18.8712 25.2406 19.0009 25.5153 19.2601Z" fill="#353535"/>
<path d="M25.0797 19.1595C25.2161 19.2268 25.3129 19.3192 25.3701 19.4368C25.4273 19.5544 25.428 19.6606 25.3722 19.7553C25.3164 19.849 25.2209 19.9035 25.0859 19.9188C24.9508 19.9342 24.8149 19.9049 24.6782 19.8311C24.5428 19.7576 24.4464 19.6622 24.3892 19.5447C24.3319 19.4273 24.3312 19.3212 24.3871 19.2263C24.4177 19.1815 24.4608 19.1457 24.5114 19.1229C24.5297 19.1142 24.5485 19.1066 24.5677 19.1C24.6023 19.089 24.6379 19.0813 24.6741 19.0771C24.8091 19.0624 24.9443 19.0899 25.0797 19.1595Z" fill="white"/>
<path d="M12.622 14.98C12.582 14.9874 12.5407 14.9945 12.4984 15.0013C10.8357 14.7674 9.3941 14.9143 8.17376 15.4423C5.15428 17.2865 4.76327 19.4199 7.00073 21.8427C9.38348 23.6166 11.3591 23.8119 12.9276 22.4286C13.119 22.2213 13.299 22.0176 13.4676 21.8176C15.228 18.3387 14.9461 16.0595 12.622 14.98Z" fill="#EFBC88"/>
<path d="M12.1408 16.0516C12.8467 16.1152 13.2109 15.9368 13.2336 15.5165C13.212 15.0923 13.0106 14.8003 12.6294 14.6404C11.8523 14.2963 10.6047 14.3347 8.8866 14.7556C7.32915 15.1558 6.7174 15.6573 7.05132 16.2602C7.37651 16.7734 8.06913 16.8011 9.1292 16.3432C9.82054 16.079 10.8244 15.9817 12.1408 16.0516Z" fill="#010101"/>
<path d="M9.81486 23.3215C7.90293 23.1643 6.63326 22.686 6.00586 21.8865C6.09628 18.6961 7.83671 17.3254 11.2272 17.7745C13.1009 18.1502 14.0647 19.6506 14.1186 22.2759C13.161 23.1309 11.7265 23.4796 9.81486 23.3219M11.2367 17.9651C8.01611 17.5381 6.44461 18.8057 6.52218 21.7679C6.9551 22.5962 8.07927 23.085 9.8947 23.2345C11.7101 23.3839 13.0729 23.0526 13.9831 22.2405C13.9319 19.7465 13.0164 18.3212 11.2367 17.9646V17.9651Z" fill="#ECECEC"/>
<path d="M6.52224 21.7673C6.4451 18.805 8.0166 17.5374 11.2367 17.9645C13.0166 18.3212 13.9322 19.7462 13.9835 22.2394C13.074 23.0513 11.7112 23.3826 9.89515 23.2334C8.07912 23.0841 6.95482 22.5954 6.52224 21.7673Z" fill="white"/>
<path d="M6.00781 21.4993C6.00925 21.5009 6.01058 21.5027 6.0118 21.5044C6.0118 21.5149 6.0118 21.5251 6.01116 21.5353L6.00781 21.628C6.00935 21.6298 6.01068 21.6318 6.0118 21.6338C6.01026 21.6746 6.00893 21.7155 6.00781 21.7563C6.00953 21.7583 6.01107 21.7604 6.01244 21.7627C6.14769 18.6682 7.88632 17.3426 11.2283 17.7861C13.069 18.1552 14.0317 19.6093 14.1163 22.1484C14.1178 22.1474 14.1192 22.1463 14.1204 22.1451C14.1195 22.1028 14.1184 22.0607 14.1171 22.0189H14.1184L14.1198 22.0176C14.1189 21.9754 14.1177 21.9336 14.1164 21.892L14.1198 21.8888C14.0656 19.2639 13.1014 17.7637 11.2271 17.3882C7.83764 16.9379 6.09789 18.3083 6.00781 21.4993Z" fill="#010101"/>
<path d="M6.00586 22.0152C6.00715 21.9738 6.00873 21.9326 6.01062 21.8916C6.6393 22.688 7.90738 23.1646 9.81486 23.3214C11.7243 23.4791 13.1577 23.1313 14.1151 22.2779C14.1166 22.3198 14.1177 22.3619 14.1186 22.4041C13.1609 23.2591 11.7261 23.608 9.81422 23.4509C7.90237 23.2938 6.63292 22.8152 6.00586 22.0152Z" fill="#010101"/>
<path d="M12.0358 18.7333C11.5564 18.2796 10.9779 18.0527 10.3002 18.0527C9.62246 18.0527 9.04443 18.2796 8.56608 18.7333C8.43314 18.859 8.31466 18.998 8.21265 19.1477C8.15349 19.2368 8.10082 19.3296 8.05503 19.4256C7.9167 19.7189 7.84757 20.0386 7.84766 20.3848C7.84766 21.0305 8.08713 21.5814 8.56608 22.0377C9.04503 22.4939 9.62306 22.7221 10.3002 22.7221C10.9779 22.7221 11.5564 22.494 12.0358 22.0377C12.5152 21.5814 12.7544 21.0304 12.7536 20.3848C12.7536 19.7402 12.5143 19.1897 12.0358 18.7333Z" fill="#4E8080"/>
<path d="M10.3002 18.0527C10.9779 18.0527 11.5564 18.2796 12.0358 18.7333C12.5143 19.1896 12.7536 19.7401 12.7536 20.3848C12.7536 21.0295 12.5143 21.5805 12.0358 22.0377C11.5564 22.494 10.9779 22.7221 10.3002 22.7221C9.62246 22.7221 9.04443 22.494 8.56608 22.0377C8.08704 21.5814 7.84757 21.0305 7.84766 20.3848C7.84766 20.0388 7.91678 19.7191 8.05503 19.4256C8.10082 19.3296 8.15349 19.2368 8.21265 19.1477C8.31466 18.998 8.43314 18.859 8.56608 18.7333C9.04537 18.2796 9.6234 18.0527 10.3002 18.0527Z" fill="#CB9216"/>
<path d="M8.25091 19.9297C8.58183 21.328 9.2961 22.1297 10.3937 22.3348C8.78124 22.4007 8.06697 21.599 8.25091 19.9297Z" fill="#A87513"/>
<path d="M10.3081 18.6514C10.7994 18.6514 11.2189 18.8119 11.5667 19.1331C11.9145 19.4617 12.0883 19.8583 12.0882 20.3229C12.0882 20.7874 11.9143 21.1842 11.5667 21.5133C11.2188 21.8425 10.7993 22.007 10.3081 22.007C9.81692 22.0069 9.39758 21.8423 9.05012 21.5133C8.7029 21.1842 8.5293 20.7874 8.5293 20.3229C8.5293 20.0729 8.57939 19.8426 8.67959 19.632C8.71277 19.563 8.75083 19.4962 8.7935 19.4321C8.86737 19.3237 8.9536 19.2234 9.05063 19.1331C9.39835 18.8119 9.81769 18.6514 10.3086 18.6514M11.8734 20.2035C11.8734 19.8361 11.7355 19.5223 11.4596 19.2623C11.1837 19.0023 10.852 18.8726 10.4645 18.8732C10.0757 18.8732 9.74381 19.0029 9.46885 19.2623C9.39199 19.3337 9.32372 19.413 9.26533 19.4987C9.1246 19.7091 9.05165 19.9541 9.05551 20.2035C9.05551 20.571 9.19329 20.8854 9.46885 21.1467C9.74441 21.408 10.0763 21.5381 10.4645 21.5371C10.8528 21.5371 11.1845 21.407 11.4596 21.1467C11.7346 20.8865 11.8726 20.5721 11.8734 20.2035Z" fill="#2A292A"/>
<path d="M11.4589 19.2622C11.7348 19.522 11.8727 19.8358 11.8727 20.2034C11.8727 20.571 11.7348 20.8854 11.4589 21.1466C11.1837 21.4069 10.852 21.537 10.4638 21.5369C10.0755 21.5369 9.74364 21.4067 9.46817 21.1466C9.19261 20.8859 9.05483 20.5715 9.05483 20.2034C9.05097 19.954 9.12392 19.7089 9.26465 19.4986C9.32304 19.4128 9.3913 19.3335 9.46817 19.2622C9.74313 19.0028 10.075 18.873 10.4638 18.873C10.8526 18.873 11.1843 19.0028 11.4589 19.2622Z" fill="#353535"/>
<path d="M11.0249 19.1595C11.1613 19.2271 11.2581 19.3198 11.3154 19.4374C11.3726 19.5551 11.3733 19.6613 11.3174 19.7559C11.2615 19.8497 11.166 19.9042 11.0311 19.9194C10.8962 19.9347 10.7603 19.9055 10.6234 19.8317C10.4879 19.7582 10.3916 19.6628 10.3344 19.5453C10.2772 19.4279 10.2766 19.3218 10.3324 19.2269C10.3628 19.1819 10.4059 19.1459 10.4567 19.123C10.4749 19.1143 10.4937 19.1067 10.5129 19.1001C10.5474 19.089 10.5831 19.0814 10.6193 19.0772C10.7543 19.0623 10.8895 19.0897 11.0249 19.1595Z" fill="white"/>
</g>
<defs>
<clipPath id="clip0_1848_92">
<rect width="34" height="40" fill="white"/>
</clipPath>
</defs>
</svg>
