<svg width="15" height="15" viewBox="0 0 15 15" fill="none" xmlns="http://www.w3.org/2000/svg">
<path d="M14.0547 6.5625H8.42969V0.9375C8.42969 0.68886 8.33092 0.450403 8.1551 0.274588C7.97928 0.0987722 7.74083 0 7.49219 0C7.24355 0 7.00509 0.0987722 6.82928 0.274588C6.65346 0.450403 6.55469 0.68886 6.55469 0.9375V6.5625H0.929688C0.681047 6.5625 0.44259 6.66127 0.266775 6.83709C0.0909597 7.0129 -0.0078125 7.25136 -0.0078125 7.5C-0.0078125 7.74864 0.0909597 7.9871 0.266775 8.16291C0.44259 8.33873 0.681047 8.4375 0.929688 8.4375H6.55469V14.0625C6.55469 14.3111 6.65346 14.5496 6.82928 14.7254C7.00509 14.9012 7.24355 15 7.49219 15C7.74083 15 7.97928 14.9012 8.1551 14.7254C8.33092 14.5496 8.42969 14.3111 8.42969 14.0625V8.4375H14.0547C14.3033 8.4375 14.5418 8.33873 14.7176 8.16291C14.8934 7.9871 14.9922 7.74864 14.9922 7.5C14.9922 7.25136 14.8934 7.0129 14.7176 6.83709C14.5418 6.66127 14.3033 6.5625 14.0547 6.5625Z" fill="#001C80"/>
</svg>
