<svg width="23" height="23" viewBox="0 0 23 23" fill="none" xmlns="http://www.w3.org/2000/svg">
<g clip-path="url(#clip0_1859_2123)">
<path d="M16.4339 0.432617H6.56538C5.74322 0.432617 5.07031 1.10489 5.07031 1.92769V21.0721C5.07031 21.8948 5.74322 22.5678 6.56538 22.5678H16.4339C17.256 22.5678 17.9289 21.8961 17.9289 21.0727V1.92769C17.9289 1.10489 17.256 0.432617 16.4339 0.432617ZM9.92107 1.51028H13.0782C13.1781 1.51028 13.259 1.59123 13.259 1.69179C13.259 1.79171 13.1781 1.87267 13.0782 1.87267H9.92107C9.82115 1.87267 9.74019 1.79171 9.74019 1.69179C9.74019 1.59123 9.82115 1.51028 9.92107 1.51028ZM11.4996 21.8202C11.0866 21.8202 10.7521 21.4857 10.7521 21.0721C10.7521 20.6584 11.0866 20.3245 11.4996 20.3245C11.9126 20.3245 12.2472 20.6584 12.2472 21.0721C12.2472 21.4857 11.9126 21.8202 11.4996 21.8202ZM16.8886 19.8009H6.11066V2.80361H16.8886V19.8009Z" fill="black"/>
</g>
<defs>
<clipPath id="clip0_1859_2123">
<rect width="22.1351" height="22.1351" fill="white" transform="translate(0.433594 0.432617)"/>
</clipPath>
</defs>
</svg>
