<svg width="15" height="15" viewBox="0 0 15 15" fill="none" xmlns="http://www.w3.org/2000/svg">
<g opacity="0.8">
<path d="M9.77652 0H4.44387C1.98997 0 0 1.98012 0 4.42188V9.72812C0 12.1699 1.98997 14.15 4.44387 14.15H9.77652C12.2304 14.15 14.2204 12.1699 14.2204 9.72812V4.42188C14.2204 1.98012 12.2304 0 9.77652 0ZM12.8872 9.72812C12.8872 11.435 11.4919 12.8234 9.77652 12.8234H4.44387C2.72854 12.8234 1.33316 11.435 1.33316 9.72812V4.42188C1.33316 2.71503 2.72854 1.32656 4.44387 1.32656H9.77652C11.4919 1.32656 12.8872 2.71503 12.8872 4.42188V9.72812Z" fill="#000B33"/>
<path d="M7.1176 3.5459C5.15429 3.5459 3.5625 5.12981 3.5625 7.0834C3.5625 9.03698 5.15429 10.6209 7.1176 10.6209C9.0809 10.6209 10.6727 9.03698 10.6727 7.0834C10.6727 5.12981 9.0809 3.5459 7.1176 3.5459ZM7.1176 9.29434C5.89287 9.29434 4.89566 8.30207 4.89566 7.0834C4.89566 5.86385 5.89287 4.87246 7.1176 4.87246C8.34233 4.87246 9.33953 5.86385 9.33953 7.0834C9.33953 8.30207 8.34233 9.29434 7.1176 9.29434Z" fill="#000B33"/>
<path d="M10.9222 3.75483C11.1845 3.75483 11.3971 3.54326 11.3971 3.28226C11.3971 3.02127 11.1845 2.80969 10.9222 2.80969C10.6599 2.80969 10.4473 3.02127 10.4473 3.28226C10.4473 3.54326 10.6599 3.75483 10.9222 3.75483Z" fill="#000B33"/>
</g>
</svg>
